<?xml version="1.0" encoding="utf-8"?>
<!-- Generator: Adobe Illustrator 15.1.0, SVG Export Plug-In . SVG Version: 6.00 Build 0)  -->
<!DOCTYPE svg PUBLIC "-//W3C//DTD SVG 1.1//EN" "http://www.w3.org/Graphics/SVG/1.1/DTD/svg11.dtd">
<svg version="1.1" xmlns="http://www.w3.org/2000/svg" xmlns:xlink="http://www.w3.org/1999/xlink" x="0px" y="0px" width="640px"
	 height="480px" viewBox="0 0 640 480" enable-background="new 0 0 640 480" xml:space="preserve">
<g id="Layer_2_1_" opacity="0.5">
	<circle opacity="0.5" stroke="#FFFFFF" stroke-miterlimit="10" cx="248.345" cy="246.797" r="10.042"/>
	<path opacity="0.5" fill="#364960" stroke="#000000" stroke-miterlimit="10" d="M297.1,95.021"/>
	<ellipse opacity="0.5" stroke="#FFFFFF" stroke-miterlimit="10" cx="126.323" cy="359.867" rx="8.179" ry="9.004"/>
	<ellipse opacity="0.5" stroke="#FFFFFF" stroke-miterlimit="10" cx="98.008" cy="400.825" rx="8.179" ry="9.003"/>
	<ellipse opacity="0.5" stroke="#FFFFFF" stroke-miterlimit="10" cx="222.805" cy="359.867" rx="8.179" ry="9.004"/>
	<ellipse opacity="0.5" stroke="#FFFFFF" stroke-miterlimit="10" cx="165.241" cy="400.825" rx="8.18" ry="9.003"/>
	<ellipse opacity="0.5" stroke="#FFFFFF" stroke-miterlimit="10" cx="290.132" cy="359.867" rx="8.181" ry="9.004"/>
	<ellipse opacity="0.5" stroke="#FFFFFF" stroke-miterlimit="10" cx="254.686" cy="400.825" rx="8.18" ry="9.003"/>
	<ellipse opacity="0.5" stroke="#FFFFFF" stroke-miterlimit="10" cx="351.475" cy="359.867" rx="8.18" ry="9.004"/>
	<ellipse opacity="0.5" stroke="#FFFFFF" stroke-miterlimit="10" cx="435.065" cy="400.825" rx="8.181" ry="9.003"/>
	<ellipse opacity="0.5" stroke="#FFFFFF" stroke-miterlimit="10" cx="490.321" cy="365.752" rx="8.181" ry="9.003"/>
	<ellipse opacity="0.5" stroke="#FFFFFF" stroke-miterlimit="10" cx="537.42" cy="400.825" rx="8.18" ry="9.003"/>
	<ellipse opacity="0.5" stroke="#FFFFFF" stroke-miterlimit="10" cx="407.687" cy="360.768" rx="8.181" ry="9.005"/>
	<ellipse opacity="0.5" stroke="#FFFFFF" stroke-miterlimit="10" cx="329.983" cy="400.825" rx="8.18" ry="9.003"/>
	<g opacity="0.5">
		<path fill="none" stroke="#000000" stroke-width="16" stroke-miterlimit="10" d="M537.418,306.688
			c0,6.12-4.505,11.082-10.063,11.082H116.256c-5.56,0-10.068-4.961-10.068-11.082V28.325c0-6.122,4.509-11.083,10.068-11.083
			h411.098c5.559,0,10.063,4.961,10.063,11.083V306.688z"/>
		<path fill="none" stroke="#000000" stroke-width="16" stroke-miterlimit="10" d="M620.5,429.13c0,6.12-4.587,11.084-11.947,12.01
			H27.469c-3.949-0.924-8.533-5.888-8.533-12.01l83.617-109.671c0-6.12,4.584-11.083,10.241-11.083h418.093
			c5.655,0,10.241,4.961,10.241,11.083L620.5,429.13z"/>
	</g>
	<g opacity="0.5">
		<g>
			<path fill="none" stroke="#000000" stroke-width="16" stroke-miterlimit="10" d="M316.237,244.849
				c-8.651,2.152-17.584,2.173-26.278-0.313c-32.534-9.302-43.772-69.792-32.011-110.93c11.76-41.138,42.066-47.344,74.602-38.042
				c7.067,2.021,18.336,13.805,14.906,31.401"/>
			<path fill="none" stroke="#000000" stroke-width="16" stroke-miterlimit="10" d="M311.261,243.428
				c6.207,6.396,13.779,11.134,22.473,13.62c32.536,9.304,74.273-36.89,86.036-78.027c11.759-41.138-10.908-61.64-43.445-70.943
				c-7.064-2.021-22.862,2.024-29.251,18.777"/>
		</g>
		<path fill="none" stroke="#000000" stroke-width="16" stroke-miterlimit="10" d="M348.82,112.051c0,0,7.425-32.473,28.709-33.673"
			/>
	</g>
	
		<rect x="18.007" y="435.558" opacity="0.5" fill="none" stroke="#000000" stroke-width="16" stroke-miterlimit="10" width="602.493" height="22.614"/>
</g>
<g id="Layer_1">
	<g id="Layer_2" display="none">
		<rect x="7" y="-73" display="inline" stroke="#000000" stroke-miterlimit="10" width="640" height="640"/>
	</g>
	<g id="Layer_1_1_" display="none">
		<circle display="inline" fill="#FFFFFF" cx="262.365" cy="79.35" r="9.75"/>
		<circle display="inline" fill="#FFFFFF" cx="210.617" cy="134.097" r="9.75"/>
		<circle display="inline" fill="#FFFFFF" cx="328.861" cy="69.6" r="9.75"/>
		<circle display="inline" fill="#FFFFFF" cx="401.857" cy="79.349" r="9.75"/>
		<circle display="inline" fill="#FFFFFF" cx="440.105" cy="134.097" r="9.75"/>
		<circle display="inline" fill="#FFFFFF" cx="371.109" cy="143.847" r="9.75"/>
		<circle display="inline" fill="#FFFFFF" cx="281.864" cy="143.847" r="9.75"/>
		<path display="inline" fill="none" stroke="#FFFFFF" stroke-width="16" stroke-miterlimit="10" d="M540.189,350.588
			c-18.605,113.177-106.695,99.055-212.939,99.055c-104.848,0-192.093,3.042-212.267-100.873"/>
		<path display="inline" fill="none" stroke="#FFFFFF" stroke-width="16" stroke-miterlimit="10" d="M516.139,349.664
			c37.812,0,68.461-23.745,68.461-53.036s-30.649-53.037-68.461-53.037H141.585c-37.81,0-68.46,23.745-68.46,53.037
			c0,29.291,30.651,53.036,68.46,53.036H516.139z"/>
		<path display="inline" fill="none" stroke="#FFFFFF" stroke-width="16" stroke-miterlimit="10" d="M129.267,201.457
			c0-97.724,89.362-176.945,199.594-176.945s199.596,79.221,199.596,176.945"/>
		<g display="inline">
			<g>
				<path fill="#FFFFFF" d="M90.681,254.062c-2.398,0.508-7.465,1.09-10.72,1.006c-0.088-0.002-3.645-0.358-1.496-0.073
					c-1.009-0.134-2.002-0.358-2.992-0.587c-2.892-0.667,1.321,0.615-1.333-0.438c-1.127-0.446-2.176-1.058-3.202-1.696
					c-6.415-4.01-5.66-15.725-4.055-22.723c0.742-3.235,3.174-7.543,4.543-9.017c0.696-0.75,1.466-1.428,2.231-2.104
					c0.133-0.117,2.814-2.078,1.025-0.833c0.867-0.604,1.781-1.137,2.691-1.672c1.237-0.672,1.246-0.692,0.026-0.059
					c0.655-0.318,1.316-0.623,1.983-0.915c1.01-0.454,2.046-0.85,3.08-1.248c3.485-1.341-2.605,0.804,0.993-0.328
					c2.191-0.689,4.424-1.243,6.659-1.767c0.372-0.087,4.145-0.856,1.138-0.275c1.136-0.22,2.278-0.411,3.419-0.602
					c2.626-0.441,5.268-0.791,7.91-1.12c25.907-3.225,51.691-3.544,77.731-1.762c30.782,2.106,61.407,6.229,92.285,6.852
					c31.479,0.635,62.915-2.395,92.278-14.27c11.912-4.818,24.161-10.967,35.711-14.437c10.548-3.169,20.287-3.394,31.392-0.044
					c19.96,6.021,35.789,21.257,55.702,27.661c12,3.858,24.58,3.942,36.854,1.351c6.45-1.362,12.641-4.256,18.66-6.882
					c2.748-1.198,5.509-2.352,8.319-3.392c-1.979,0.732,2.436-0.602,2.241-0.552c-1.368,0.351,1.243-0.047,1.667-0.039
					c4.576,0.093,9.082,5.102,12.113,8.254c4.015,4.177,6.508,9.124,7.103,14.892c0.451,4.376-1.874,8.547-4.477,11.821
					c-2.827,3.557-6.104,4.56-10.33,6.015c-3.172,1.093-10.54,6.103-6.673,10.177c4.048,4.268,12.04,1.891,16.638,0.307
					c12.178-4.193,23.077-11.998,28.426-23.931c5.166-11.521-1.727-23.805-9.938-31.716c-11.349-10.93-26.041-12.001-40.693-7.752
					c-6.389,1.853-12.448,4.625-18.541,7.25c-2.608,1.125-4.985,2.059-6.53,2.53c2.077-0.634-2.101,0.283-2.089,0.282
					c-0.884,0.107-1.77,0.191-2.655,0.253c0.992-0.068,0.756-0.082-0.718-0.04c-18.503,0.11-36.516-15.083-53.237-23.62
					c-10.613-5.417-21.846-8.678-33.694-9.771c-14.84-1.368-29.964,2.93-43.794,7.826c-12.748,4.514-24.852,10.668-37.493,15.458
					c-12.237,4.635-26.112,6.307-39.956,7.389c-30.325,2.372-60.954-1.13-91.128-3.931c-31.424-2.916-62.866-5.062-94.374-2.025
					c-20.39,1.965-41.308,3.842-59.739,13.547c-16.381,8.626-28.083,27.215-21.776,46.083c6.87,20.549,36.112,16.806,52.227,13.393
					c3.65-0.771,12.23-4.583,10.852-9.727C103.495,251.658,94.34,253.288,90.681,254.062L90.681,254.062z"/>
			</g>
		</g>
		<g display="inline">
			<g>
				<path fill="#FFFFFF" d="M210.54,118.335c1.125,0,1.464-1.474,0.155-1.474C209.569,116.861,209.231,118.335,210.54,118.335
					L210.54,118.335z"/>
			</g>
		</g>
	</g>
	<g id="Layer_3" display="none">
	</g>
	<circle fill="#FFFFFF" cx="244.837" cy="244.459" r="10.042"/>
	<path fill="#364960" d="M293.593,92.683"/>
	<g>
		<ellipse fill="#FFFFFF" cx="122.816" cy="357.528" rx="8.179" ry="9.004"/>
		<ellipse fill="#FFFFFF" cx="94.501" cy="398.488" rx="8.179" ry="9.002"/>
		<ellipse fill="#FFFFFF" cx="219.298" cy="357.528" rx="8.179" ry="9.004"/>
		<ellipse fill="#FFFFFF" cx="161.734" cy="398.488" rx="8.179" ry="9.002"/>
		<ellipse fill="#FFFFFF" cx="286.625" cy="357.528" rx="8.181" ry="9.004"/>
		<ellipse fill="#FFFFFF" cx="251.179" cy="398.488" rx="8.18" ry="9.002"/>
		<ellipse fill="#FFFFFF" cx="347.968" cy="357.528" rx="8.18" ry="9.004"/>
		<ellipse fill="#FFFFFF" cx="431.559" cy="398.488" rx="8.18" ry="9.002"/>
		<ellipse fill="#FFFFFF" cx="486.814" cy="363.415" rx="8.18" ry="9.004"/>
		<ellipse fill="#FFFFFF" cx="533.913" cy="398.488" rx="8.18" ry="9.002"/>
		<ellipse fill="#FFFFFF" cx="404.18" cy="358.43" rx="8.18" ry="9.005"/>
		<ellipse fill="#FFFFFF" cx="326.476" cy="398.488" rx="8.179" ry="9.002"/>
		<g>
			<path fill="none" stroke="#FFFFFF" stroke-width="16" stroke-miterlimit="10" d="M533.91,304.351
				c0,6.119-4.504,11.081-10.064,11.081H112.749c-5.559,0-10.068-4.96-10.068-11.081V25.986c0-6.121,4.509-11.082,10.068-11.082
				h411.097c5.561,0,10.064,4.961,10.064,11.082V304.351z"/>
			<path fill="none" stroke="#FFFFFF" stroke-width="16" stroke-miterlimit="10" d="M616.993,426.792
				c0,6.12-4.587,11.085-11.948,12.009H23.961c-3.949-0.923-8.533-5.887-8.533-12.009L99.046,317.12
				c0-6.12,4.584-11.082,10.24-11.082h418.092c5.656,0,10.242,4.96,10.242,11.082L616.993,426.792z"/>
		</g>
	</g>
	<g>
		<g>
			<path fill="none" stroke="#FFFFFF" stroke-width="16" stroke-miterlimit="10" d="M312.73,242.511
				c-8.652,2.151-17.585,2.173-26.279-0.313c-32.534-9.302-43.772-69.792-32.01-110.93c11.76-41.137,42.067-47.344,74.602-38.042
				c7.066,2.02,18.336,13.805,14.906,31.401"/>
			<path fill="none" stroke="#FFFFFF" stroke-width="16" stroke-miterlimit="10" d="M307.753,241.089
				c6.206,6.396,13.78,11.134,22.473,13.621c32.536,9.303,74.272-36.89,86.035-78.027c11.76-41.138-10.908-61.641-43.445-70.943
				c-7.065-2.022-22.862,2.023-29.251,18.776"/>
		</g>
		<path fill="none" stroke="#FFFFFF" stroke-width="16" stroke-miterlimit="10" d="M345.313,109.713c0,0,7.425-32.474,28.709-33.673
			"/>
	</g>
	
		<rect x="14.5" y="431.219" fill="none" stroke="#FFFFFF" stroke-width="16" stroke-miterlimit="10" width="602.493" height="22.614"/>
</g>
</svg>
