<?xml version="1.0" encoding="utf-8"?>
<!-- Generator: Adobe Illustrator 15.1.0, SVG Export Plug-In . SVG Version: 6.00 Build 0)  -->
<!DOCTYPE svg PUBLIC "-//W3C//DTD SVG 1.1//EN" "http://www.w3.org/Graphics/SVG/1.1/DTD/svg11.dtd">
<svg version="1.1" xmlns="http://www.w3.org/2000/svg" xmlns:xlink="http://www.w3.org/1999/xlink" x="0px" y="0px" width="640px"
	 height="480px" viewBox="0 0 640 480" enable-background="new 0 0 640 480" xml:space="preserve">
<g id="Layer_2_2_" opacity="0.5">
	<g id="Layer_2_3_" display="none">
		<rect y="-80" display="inline" stroke="#000000" stroke-miterlimit="10" width="640" height="640"/>
	</g>
	<circle opacity="0.5" cx="258.682" cy="75.679" r="9.933"/>
	<circle opacity="0.5" cx="205.965" cy="131.452" r="9.933"/>
	<circle opacity="0.5" cx="326.423" cy="65.746" r="9.933"/>
	<circle opacity="0.5" cx="400.787" cy="75.677" r="9.933"/>
	<circle opacity="0.5" cx="439.753" cy="131.452" r="9.933"/>
	<circle opacity="0.5" cx="369.464" cy="141.384" r="9.933"/>
	<circle opacity="0.5" cx="278.545" cy="141.384" r="9.933"/>
	<path opacity="0.5" fill="none" stroke="#000000" stroke-width="16" stroke-miterlimit="10" d="M541.711,351.999
		C522.756,467.297,433.018,452.91,324.783,452.91c-106.813,0-195.693,3.1-216.245-102.763"/>
	<path opacity="0.5" fill="none" stroke="#000000" stroke-width="16" stroke-miterlimit="10" d="M517.211,351.057
		c38.518,0,69.742-24.19,69.742-54.028c0-29.841-31.225-54.03-69.742-54.03H135.639c-38.518,0-69.743,24.19-69.743,54.03
		c0,29.839,31.226,54.028,69.743,54.028H517.211z"/>
	<path opacity="0.5" fill="none" stroke="#000000" stroke-width="16" stroke-miterlimit="10" d="M123.089,200.074
		c0-99.555,91.037-180.262,203.334-180.262c112.3,0,203.337,80.707,203.337,180.262"/>
	<g opacity="0.5">
		<g>
			<path d="M83.782,253.665c-2.444,0.518-7.605,1.109-10.922,1.025c-0.089-0.002-3.712-0.367-1.524-0.076
				c-1.028-0.135-2.04-0.363-3.048-0.598c-2.946-0.68,1.346,0.627-1.358-0.445c-1.148-0.456-2.218-1.078-3.262-1.729
				c-6.535-4.084-5.766-16.017-4.132-23.147c0.756-3.296,3.233-7.685,4.628-9.185c0.709-0.765,1.494-1.455,2.273-2.144
				c0.135-0.12,2.867-2.118,1.045-0.849c0.883-0.615,1.813-1.159,2.741-1.705c1.26-0.685,1.269-0.704,0.027-0.059
				c0.667-0.325,1.34-0.636,2.02-0.934c1.03-0.462,2.085-0.866,3.137-1.272c3.551-1.366-2.654,0.819,1.012-0.334
				c2.232-0.702,4.506-1.267,6.783-1.8c0.379-0.089,4.223-0.872,1.16-0.28c1.156-0.224,2.32-0.419,3.483-0.614
				c2.675-0.45,5.366-0.806,8.058-1.14c26.391-3.285,52.66-3.611,79.188-1.795c31.358,2.145,62.557,6.345,94.014,6.98
				c32.07,0.647,64.095-2.44,94.007-14.538c12.136-4.907,24.615-11.172,36.381-14.707c10.744-3.228,20.668-3.458,31.979-0.044
				c20.335,6.133,36.458,21.655,56.745,28.178c12.226,3.932,25.042,4.017,37.545,1.376c6.571-1.387,12.877-4.336,19.01-7.011
				c2.799-1.221,5.611-2.396,8.477-3.456c-2.017,0.745,2.48-0.613,2.282-0.562c-1.395,0.357,1.268-0.049,1.699-0.039
				c4.662,0.095,9.251,5.197,12.341,8.409c4.089,4.255,6.628,9.295,7.233,15.17c0.46,4.458-1.908,8.708-4.56,12.042
				c-2.881,3.623-6.219,4.645-10.523,6.127c-3.232,1.113-10.737,6.216-6.799,10.367c4.124,4.349,12.266,1.926,16.949,0.312
				c12.406-4.272,23.51-12.224,28.958-24.377c5.262-11.737-1.758-24.251-10.124-32.311c-11.561-11.135-26.53-12.227-41.456-7.898
				c-6.51,1.888-12.682,4.712-18.888,7.386c-2.66,1.146-5.08,2.097-6.655,2.577c2.118-0.646-2.138,0.288-2.126,0.287
				c-0.901,0.109-1.803,0.195-2.707,0.258c1.012-0.069,0.77-0.084-0.731-0.042c-18.85,0.112-37.199-15.365-54.233-24.062
				c-10.815-5.519-22.256-8.841-34.327-9.954c-15.117-1.393-30.526,2.985-44.614,7.973c-12.986,4.599-25.316,10.868-38.195,15.749
				c-12.468,4.721-26.602,6.425-40.705,7.527c-30.894,2.416-62.097-1.152-92.836-4.005c-32.012-2.97-64.043-5.156-96.142-2.062
				c-20.772,2.002-42.082,3.914-60.858,13.801c-16.688,8.788-28.609,27.724-22.184,46.944c6.999,20.934,36.788,17.123,53.205,13.644
				c3.719-0.786,12.46-4.669,11.056-9.909C96.835,251.217,87.509,252.876,83.782,253.665L83.782,253.665z"/>
		</g>
	</g>
	<g opacity="0.5">
		<g>
			<path stroke="#FFFFFF" stroke-miterlimit="10" d="M205.886,115.395c1.146,0,1.491-1.501,0.158-1.501
				C204.896,113.893,204.552,115.395,205.886,115.395L205.886,115.395z"/>
		</g>
	</g>
</g>
<g id="Layer_1">
	<g id="Layer_2_1_">
	</g>
	<g id="Layer_1_1_">
		<g id="Layer_2" display="none">
			<rect x="-47" y="-127" display="inline" stroke="#000000" stroke-miterlimit="10" width="738" height="738"/>
		</g>
		<circle fill="#FFFFFF" cx="255.222" cy="69.914" r="9.933"/>
		<circle fill="#FFFFFF" cx="202.505" cy="125.687" r="9.933"/>
		<circle fill="#FFFFFF" cx="322.964" cy="59.98" r="9.933"/>
		<circle fill="#FFFFFF" cx="397.328" cy="69.912" r="9.933"/>
		<circle fill="#FFFFFF" cx="436.294" cy="125.687" r="9.933"/>
		<circle fill="#FFFFFF" cx="366.005" cy="135.618" r="9.933"/>
		<circle fill="#FFFFFF" cx="275.086" cy="135.618" r="9.933"/>
		<path fill="none" stroke="#FFFFFF" stroke-width="16" stroke-miterlimit="10" d="M538.251,346.233
			c-18.954,115.298-108.692,100.911-216.928,100.911c-106.813,0-195.692,3.1-216.245-102.763"/>
		<path fill="none" stroke="#FFFFFF" stroke-width="16" stroke-miterlimit="10" d="M513.751,345.291
			c38.518,0,69.743-24.19,69.743-54.028c0-29.841-31.226-54.031-69.743-54.031H132.18c-38.518,0-69.742,24.191-69.742,54.031
			c0,29.839,31.225,54.028,69.742,54.028H513.751z"/>
		<path fill="none" stroke="#FFFFFF" stroke-width="16" stroke-miterlimit="10" d="M119.63,194.308
			c0-99.555,91.036-180.262,203.334-180.262c112.299,0,203.337,80.707,203.337,180.262"/>
		<g>
			<g>
				<path fill="#FFFFFF" d="M80.322,247.899c-2.443,0.518-7.605,1.109-10.921,1.025c-0.089-0.002-3.712-0.367-1.524-0.076
					c-1.029-0.135-2.04-0.363-3.048-0.598c-2.947-0.68,1.346,0.627-1.359-0.445c-1.148-0.456-2.217-1.078-3.262-1.729
					c-6.535-4.084-5.766-16.019-4.132-23.147c0.756-3.296,3.233-7.685,4.628-9.185c0.709-0.765,1.494-1.455,2.273-2.144
					c0.135-0.12,2.866-2.118,1.044-0.849c0.883-0.616,1.814-1.159,2.742-1.705c1.26-0.685,1.269-0.705,0.026-0.06
					c0.667-0.324,1.341-0.636,2.021-0.933c1.03-0.462,2.084-0.866,3.137-1.272c3.55-1.366-2.654,0.819,1.011-0.334
					c2.233-0.701,4.507-1.266,6.784-1.8c0.379-0.089,4.223-0.872,1.16-0.28c1.156-0.224,2.32-0.419,3.484-0.614
					c2.674-0.45,5.366-0.806,8.057-1.14c26.392-3.285,52.66-3.611,79.188-1.795c31.357,2.145,62.557,6.345,94.014,6.98
					c32.07,0.647,64.095-2.44,94.007-14.538c12.135-4.907,24.613-11.172,36.381-14.707c10.744-3.228,20.668-3.458,31.979-0.044
					c20.335,6.133,36.458,21.655,56.745,28.178c12.226,3.932,25.041,4.017,37.545,1.376c6.57-1.387,12.877-4.335,19.009-7.011
					c2.8-1.221,5.612-2.396,8.478-3.456c-2.018,0.745,2.479-0.613,2.281-0.562c-1.394,0.357,1.267-0.049,1.7-0.039
					c4.662,0.095,9.251,5.197,12.339,8.409c4.091,4.255,6.63,9.295,7.234,15.17c0.461,4.458-1.909,8.708-4.559,12.042
					c-2.881,3.624-6.219,4.645-10.524,6.127c-3.231,1.114-10.736,6.216-6.798,10.367c4.124,4.349,12.266,1.926,16.949,0.312
					c12.405-4.272,23.509-12.223,28.958-24.377c5.262-11.737-1.759-24.251-10.124-32.311c-11.561-11.135-26.53-12.227-41.456-7.898
					c-6.51,1.888-12.683,4.712-18.889,7.386c-2.66,1.146-5.08,2.097-6.654,2.577c2.118-0.646-2.138,0.288-2.127,0.287
					c-0.901,0.109-1.803,0.195-2.706,0.258c1.012-0.069,0.77-0.084-0.731-0.042c-18.85,0.112-37.2-15.365-54.233-24.062
					c-10.815-5.519-22.256-8.841-34.328-9.954c-15.116-1.393-30.525,2.985-44.613,7.973c-12.986,4.599-25.317,10.868-38.195,15.749
					c-12.468,4.721-26.602,6.425-40.705,7.527c-30.894,2.416-62.098-1.152-92.837-4.005c-32.011-2.97-64.042-5.156-96.142-2.062
					c-20.772,2.002-42.082,3.914-60.858,13.801c-16.688,8.788-28.609,27.724-22.183,46.944
					c6.998,20.934,36.788,17.123,53.205,13.644c3.719-0.786,12.459-4.669,11.055-9.909C93.375,245.451,84.049,247.11,80.322,247.899
					L80.322,247.899z"/>
			</g>
		</g>
		<g>
			<g>
				<path fill="#FFFFFF" d="M202.427,109.629c1.146,0,1.491-1.501,0.158-1.501C201.437,108.127,201.093,109.629,202.427,109.629
					L202.427,109.629z"/>
			</g>
		</g>
	</g>
</g>
</svg>
