<?xml version="1.0" encoding="utf-8"?>
<!-- Generator: Adobe Illustrator 15.1.0, SVG Export Plug-In . SVG Version: 6.00 Build 0)  -->
<!DOCTYPE svg PUBLIC "-//W3C//DTD SVG 1.1//EN" "http://www.w3.org/Graphics/SVG/1.1/DTD/svg11.dtd">
<svg version="1.1" xmlns="http://www.w3.org/2000/svg" xmlns:xlink="http://www.w3.org/1999/xlink" x="0px" y="0px" width="640px"
	 height="480px" viewBox="0 0 640 480" enable-background="new 0 0 640 480" xml:space="preserve">
<g id="Layer_2_1_">
	<circle opacity="0.5" stroke="#FFFFFF" stroke-miterlimit="10" cx="210.197" cy="191.629" r="9.874"/>
	<circle opacity="0.5" stroke="#FFFFFF" stroke-miterlimit="10" cx="274.126" cy="121.32" r="9.875"/>
	<circle opacity="0.5" stroke="#FFFFFF" stroke-miterlimit="10" cx="326.061" cy="67.505" r="9.874"/>
	<circle opacity="0.5" stroke="#FFFFFF" stroke-miterlimit="10" cx="335.937" cy="111.446" r="9.874"/>
	<circle opacity="0.5" stroke="#FFFFFF" stroke-miterlimit="10" cx="389.235" cy="133.616" r="9.874"/>
	<circle opacity="0.5" stroke="#FFFFFF" stroke-miterlimit="10" cx="284.003" cy="172.74" r="9.874"/>
	<circle opacity="0.5" stroke="#FFFFFF" stroke-miterlimit="10" cx="345.811" cy="188.595" r="9.875"/>
	<circle opacity="0.5" stroke="#FFFFFF" stroke-miterlimit="10" cx="414.79" cy="172.74" r="9.874"/>
	<path opacity="0.5" fill="none" stroke="#000000" stroke-width="16" stroke-miterlimit="10" d="M499.051,460.04
		c0,4.91-3.616,8.892-8.078,8.892H161.147c-4.46,0-8.076-3.983-8.076-8.892V236.708c0-4.911,3.616-8.892,8.076-8.892h329.827
		c4.46,0,8.078,3.981,8.078,8.892V460.04H499.051L499.051,460.04z"/>
	<path opacity="0.5" fill="none" stroke="#000000" stroke-width="16" stroke-miterlimit="10" d="M466.697,148.936l56.108,61.17
		c3.74,3.74,7.895,21.73-29.728,17.51"/>
	<path opacity="0.5" fill="none" stroke="#000000" stroke-width="16" stroke-miterlimit="10" d="M158.417,227.815
		c-22.614,0.473-33.604-2.247-23.089-14.961L322.969,25.213c4.125-4.126,10.503-4.44,14.242-0.7l79.73,81.885"/>
	<path opacity="0.5" fill="none" stroke="#000000" stroke-width="16" stroke-miterlimit="10" d="M379.362,461.945
		c0,3.856-1.038,6.986-2.319,6.986h-94.638c-1.281,0-2.318-3.13-2.318-6.986V286.419c0-3.862,1.037-6.99,2.318-6.99h94.638
		c1.281,0,2.319,3.128,2.319,6.99V461.945z"/>
	<path opacity="0.5" fill="none" stroke="#000000" stroke-width="16" stroke-miterlimit="10" d="M468.471,154.85V14.815
		c0-3.08-0.559-5.575-1.251-5.575h-51.173c-0.694,0-1.253,2.496-1.253,5.575v86.266"/>
</g>
<g id="Layer_1">
	<g id="Layer_2" display="none">
		<rect x="7" y="-73" display="inline" stroke="#000000" stroke-miterlimit="10" width="640" height="640"/>
	</g>
	<g id="Layer_1_1_" display="none">
		<circle display="inline" fill="#FFFFFF" cx="262.365" cy="79.35" r="9.75"/>
		<circle display="inline" fill="#FFFFFF" cx="210.617" cy="134.097" r="9.75"/>
		<circle display="inline" fill="#FFFFFF" cx="328.861" cy="69.6" r="9.75"/>
		<circle display="inline" fill="#FFFFFF" cx="401.857" cy="79.349" r="9.75"/>
		<circle display="inline" fill="#FFFFFF" cx="440.105" cy="134.097" r="9.75"/>
		<circle display="inline" fill="#FFFFFF" cx="371.109" cy="143.847" r="9.75"/>
		<circle display="inline" fill="#FFFFFF" cx="281.864" cy="143.847" r="9.75"/>
		<path display="inline" fill="none" stroke="#FFFFFF" stroke-width="16" stroke-miterlimit="10" d="M540.189,350.588
			c-18.605,113.177-106.695,99.055-212.939,99.055c-104.848,0-192.093,3.042-212.267-100.873"/>
		<path display="inline" fill="none" stroke="#FFFFFF" stroke-width="16" stroke-miterlimit="10" d="M516.139,349.664
			c37.812,0,68.461-23.745,68.461-53.036s-30.648-53.037-68.461-53.037H141.585c-37.81,0-68.46,23.745-68.46,53.037
			c0,29.291,30.651,53.036,68.46,53.036H516.139z"/>
		<path display="inline" fill="none" stroke="#FFFFFF" stroke-width="16" stroke-miterlimit="10" d="M129.267,201.457
			c0-97.724,89.362-176.945,199.594-176.945c110.231,0,199.596,79.221,199.596,176.945"/>
		<g display="inline">
			<g>
				<path fill="#FFFFFF" d="M90.681,254.062c-2.398,0.508-7.465,1.09-10.72,1.006c-0.088-0.002-3.645-0.358-1.496-0.073
					c-1.009-0.134-2.002-0.358-2.992-0.587c-2.892-0.667,1.321,0.615-1.333-0.438c-1.127-0.446-2.176-1.058-3.202-1.696
					c-6.415-4.01-5.66-15.725-4.055-22.723c0.742-3.235,3.174-7.543,4.543-9.017c0.696-0.75,1.466-1.428,2.231-2.104
					c0.133-0.117,2.814-2.078,1.025-0.833c0.867-0.604,1.781-1.137,2.691-1.672c1.237-0.672,1.246-0.692,0.026-0.059
					c0.655-0.318,1.316-0.623,1.983-0.915c1.01-0.454,2.046-0.85,3.08-1.248c3.485-1.341-2.605,0.804,0.993-0.328
					c2.191-0.689,4.424-1.243,6.659-1.767c0.372-0.087,4.145-0.856,1.138-0.275c1.136-0.22,2.278-0.411,3.419-0.602
					c2.626-0.441,5.268-0.791,7.91-1.12c25.907-3.225,51.691-3.544,77.731-1.762c30.782,2.106,61.407,6.229,92.285,6.852
					c31.479,0.635,62.915-2.395,92.278-14.27c11.912-4.818,24.161-10.967,35.711-14.437c10.548-3.169,20.287-3.394,31.392-0.044
					c19.96,6.021,35.789,21.257,55.702,27.661c12,3.858,24.58,3.942,36.854,1.351c6.45-1.362,12.641-4.256,18.66-6.882
					c2.748-1.198,5.509-2.352,8.318-3.392c-1.979,0.732,2.437-0.602,2.241-0.552c-1.368,0.351,1.243-0.047,1.667-0.039
					c4.576,0.093,9.082,5.102,12.113,8.254c4.015,4.177,6.508,9.124,7.103,14.892c0.451,4.376-1.874,8.547-4.477,11.821
					c-2.827,3.557-6.104,4.56-10.33,6.015c-3.172,1.093-10.54,6.103-6.673,10.177c4.048,4.268,12.04,1.891,16.638,0.307
					c12.178-4.192,23.077-11.998,28.426-23.931c5.166-11.521-1.727-23.805-9.938-31.716c-11.35-10.93-26.041-12.001-40.693-7.752
					c-6.389,1.853-12.448,4.625-18.541,7.25c-2.607,1.125-4.984,2.059-6.53,2.53c2.077-0.634-2.101,0.283-2.089,0.282
					c-0.884,0.107-1.77,0.191-2.654,0.253c0.991-0.068,0.756-0.082-0.719-0.04c-18.503,0.11-36.516-15.083-53.236-23.62
					c-10.613-5.417-21.847-8.678-33.694-9.771c-14.84-1.368-29.964,2.93-43.794,7.826c-12.748,4.514-24.852,10.668-37.493,15.458
					c-12.237,4.635-26.112,6.307-39.956,7.389c-30.325,2.372-60.954-1.13-91.128-3.931c-31.424-2.916-62.866-5.062-94.374-2.025
					c-20.39,1.965-41.308,3.842-59.739,13.547c-16.381,8.626-28.083,27.215-21.776,46.083c6.87,20.549,36.112,16.807,52.227,13.394
					c3.65-0.771,12.23-4.583,10.852-9.728C103.495,251.658,94.34,253.288,90.681,254.062L90.681,254.062z"/>
			</g>
		</g>
		<g display="inline">
			<g>
				<path fill="#FFFFFF" d="M210.54,118.335c1.125,0,1.464-1.474,0.155-1.474C209.569,116.861,209.231,118.335,210.54,118.335
					L210.54,118.335z"/>
			</g>
		</g>
	</g>
	<g id="Layer_3_2_">
		<circle fill="#FFFFFF" cx="208.608" cy="188.889" r="9.874"/>
		<circle fill="#FFFFFF" cx="272.537" cy="118.58" r="9.875"/>
		<circle fill="#FFFFFF" cx="324.472" cy="64.766" r="9.874"/>
		<circle fill="#FFFFFF" cx="334.347" cy="108.706" r="9.874"/>
		<circle fill="#FFFFFF" cx="387.646" cy="130.876" r="9.874"/>
		<circle fill="#FFFFFF" cx="282.414" cy="169.999" r="9.874"/>
		<circle fill="#FFFFFF" cx="344.222" cy="185.855" r="9.875"/>
		<circle fill="#FFFFFF" cx="413.201" cy="169.999" r="9.874"/>
		<path fill="none" stroke="#FFFFFF" stroke-width="16" stroke-miterlimit="10" d="M497.462,457.302c0,4.908-3.617,8.89-8.078,8.89
			H159.558c-4.459,0-8.076-3.983-8.076-8.89V233.968c0-4.911,3.617-8.892,8.076-8.892h329.828c4.459,0,8.078,3.982,8.078,8.892
			v223.334H497.462L497.462,457.302z"/>
		<path fill="none" stroke="#FFFFFF" stroke-width="16" stroke-miterlimit="10" d="M465.108,146.196l56.108,61.17
			c3.74,3.74,7.895,21.729-29.729,17.51"/>
		<path fill="none" stroke="#FFFFFF" stroke-width="16" stroke-miterlimit="10" d="M156.828,225.075
			c-22.614,0.473-33.603-2.247-23.089-14.96l187.64-187.641c4.126-4.125,10.503-4.44,14.243-0.7l79.73,81.885"/>
		<path fill="none" stroke="#FFFFFF" stroke-width="16" stroke-miterlimit="10" d="M377.773,459.204
			c0,3.856-1.039,6.987-2.319,6.987h-94.638c-1.281,0-2.319-3.129-2.319-6.987V283.679c0-3.862,1.038-6.989,2.319-6.989h94.638
			c1.28,0,2.319,3.127,2.319,6.989V459.204z"/>
		<path fill="none" stroke="#FFFFFF" stroke-width="16" stroke-miterlimit="10" d="M466.882,152.109V12.076
			c0-3.08-0.559-5.576-1.252-5.576h-51.173c-0.694,0-1.252,2.496-1.252,5.576v86.265"/>
	</g>
</g>
</svg>
