<?xml version="1.0" encoding="utf-8"?>
<!-- Generator: Adobe Illustrator 15.1.0, SVG Export Plug-In . SVG Version: 6.00 Build 0)  -->
<!DOCTYPE svg PUBLIC "-//W3C//DTD SVG 1.1//EN" "http://www.w3.org/Graphics/SVG/1.1/DTD/svg11.dtd">
<svg version="1.1" id="Layer_1" xmlns="http://www.w3.org/2000/svg" xmlns:xlink="http://www.w3.org/1999/xlink" x="0px" y="0px"
	 width="304.5px" height="294.334px" viewBox="0 0 304.5 294.334" enable-background="new 0 0 304.5 294.334" xml:space="preserve">
<g id="ni0y61_1_">
	
		<image overflow="visible" enable-background="new    " width="835" height="316" id="ni0y61_2_" xlink:href="../../../hacklivet/img/icon/9A4B531C.jpeg"  transform="matrix(3.2718 0 0 3.269 -1019 847.002)">
	</image>
</g>
<polygon fill="none" stroke="#000000" stroke-miterlimit="10" points="3057.903,1188.094 1773,857.902 1776.121,576 
	3061.025,906.191 "/>
<text transform="matrix(1.1046 0 0 1 1903.6006 891.4697)" fill="none" stroke="#000000" stroke-miterlimit="10" font-family="'CherrySwash-Bold'" font-size="170.8897">H</text>
<rect x="988.5" y="-575.174" fill="none" stroke="#000000" stroke-miterlimit="10" width="93.948" height="147.271"/>
<rect x="487.902" y="-295.771" fill="none" stroke="#000000" stroke-miterlimit="10" width="93.949" height="147.271"/>
<rect x="487.808" y="-463.174" fill="none" stroke="#000000" stroke-miterlimit="10" width="93.948" height="147.271"/>
<rect x="487.808" y="-631" fill="none" stroke="#000000" stroke-miterlimit="10" width="93.948" height="147.271"/>
<g opacity="0.5">
	<path d="M46.728,57.543c0-5.5,4.5-10,10-10h191.045c5.5,0,10,4.5,10,10v23.499c0,5.5-4.5,10-10,10H56.728c-5.5,0-10-4.5-10-10
		V57.543z"/>
</g>
<g opacity="0.5">
	<path d="M46.728,137.04c0-5.5,4.5-10,10-10h191.045c5.5,0,10,4.5,10,10v23.498c0,5.5-4.5,10-10,10H56.728c-5.5,0-10-4.5-10-10
		V137.04z"/>
</g>
<g opacity="0.5">
	<path d="M46.728,213.293c0-5.5,4.5-10,10-10h191.045c5.5,0,10,4.5,10,10v23.498c0,5.5-4.5,10-10,10H56.728c-5.5,0-10-4.5-10-10
		V213.293z"/>
</g>
<g opacity="0.5">
	<path d="M50.228,60.792c0-5.5,4.5-10,10-10h179.856c5.5,0,10-0.506,10-1.125c0-0.619-4.5-1.125-10-1.125H57.728
		c-5.5,0-10,4.5-10,10v15.624c0,5.5,0.562,10,1.25,10s1.25-4.5,1.25-10V60.792z"/>
	<path fill="none" stroke="#000000" stroke-width="2" stroke-miterlimit="10" d="M50.228,60.792c0-5.5,4.5-10,10-10h179.856
		c5.5,0,10-0.506,10-1.125c0-0.619-4.5-1.125-10-1.125H57.728c-5.5,0-10,4.5-10,10v15.624c0,5.5,0.562,10,1.25,10s1.25-4.5,1.25-10
		V60.792z"/>
</g>
<g opacity="0.5">
	<path d="M50.228,140.29c0-5.5,4.5-10,10-10h179.856c5.5,0,10-0.506,10-1.125c0-0.619-4.5-1.125-10-1.125H57.728
		c-5.5,0-10,4.5-10,10v15.624c0,5.5,0.562,10,1.25,10s1.25-4.5,1.25-10V140.29z"/>
	<path fill="none" stroke="#000000" stroke-width="2" stroke-miterlimit="10" d="M50.228,140.29c0-5.5,4.5-10,10-10h179.856
		c5.5,0,10-0.506,10-1.125c0-0.619-4.5-1.125-10-1.125H57.728c-5.5,0-10,4.5-10,10v15.624c0,5.5,0.562,10,1.25,10s1.25-4.5,1.25-10
		V140.29z"/>
</g>
<g opacity="0.5">
	<path d="M50.228,216.542c0-5.5,4.5-10,10-10h179.856c5.5,0,10-0.506,10-1.124s-4.5-1.125-10-1.125H57.728c-5.5,0-10,4.5-10,10
		v15.624c0,5.5,0.562,10,1.25,10s1.25-4.5,1.25-10V216.542z"/>
	<path fill="none" stroke="#000000" stroke-width="2" stroke-miterlimit="10" d="M50.228,216.542c0-5.5,4.5-10,10-10h179.856
		c5.5,0,10-0.506,10-1.124s-4.5-1.125-10-1.125H57.728c-5.5,0-10,4.5-10,10v15.624c0,5.5,0.562,10,1.25,10s1.25-4.5,1.25-10V216.542
		z"/>
</g>
</svg>
