<?xml version="1.0" encoding="utf-8"?>
<!-- Generator: Adobe Illustrator 15.1.0, SVG Export Plug-In . SVG Version: 6.00 Build 0)  -->
<!DOCTYPE svg PUBLIC "-//W3C//DTD SVG 1.1//EN" "http://www.w3.org/Graphics/SVG/1.1/DTD/svg11.dtd">
<svg version="1.1" xmlns="http://www.w3.org/2000/svg" xmlns:xlink="http://www.w3.org/1999/xlink" x="0px" y="0px" width="640px"
	 height="480px" viewBox="0 0 640 480" enable-background="new 0 0 640 480" xml:space="preserve">
<g id="Layer_2_1_" opacity="0.5">
	<circle opacity="0.5" cx="200.837" cy="195.845" r="9.776"/>
	<circle opacity="0.5" cx="233.928" cy="128.64" r="9.775"/>
	<circle opacity="0.5" cx="294.095" cy="77.584" r="9.776"/>
	<circle opacity="0.5" cx="366.294" cy="105.437" r="9.776"/>
	<circle opacity="0.5" cx="423.451" cy="157.595" r="9.776"/>
	<circle opacity="0.5" cx="471.585" cy="222.326" r="9.776"/>
	<circle opacity="0.5" cx="243.702" cy="236.802" r="9.776"/>
	<circle opacity="0.5" cx="303.869" cy="167.37" r="9.775"/>
	<circle opacity="0.5" cx="356.519" cy="232.103" r="9.777"/>
	<path opacity="0.5" fill="none" stroke="#000000" stroke-width="16" stroke-miterlimit="10" d="M479.501,126.433
		c-11.036-31.436-38.306-55.229-71.754-61.323c-14.081-33.108-46.904-56.326-85.151-56.326c-36.885,0-68.721,21.593-83.572,52.824
		c-44.365,4.361-79.678,39.563-84.201,83.881c-23.785,16.737-39.331,44.398-39.331,75.693c0,51.082,62.799,92.491,113.882,92.491
		c7.751,0,14.14-0.027,19.55-0.267V464.82h156.409V310.986c10.098,1.222,21.079,0.851,32.336-0.008
		c53.417-4.075,97.004-43.431,97.004-97.002C534.672,175.382,512.133,142.056,479.501,126.433z"/>
</g>
<g id="Layer_1">
	<g id="Layer_2" display="none">
		<rect x="7" y="-73" display="inline" stroke="#000000" stroke-miterlimit="10" width="640" height="640"/>
	</g>
	<g id="Layer_1_1_" display="none">
		<circle display="inline" fill="#FFFFFF" cx="262.365" cy="79.35" r="9.75"/>
		<circle display="inline" fill="#FFFFFF" cx="210.617" cy="134.097" r="9.75"/>
		<circle display="inline" fill="#FFFFFF" cx="328.861" cy="69.6" r="9.75"/>
		<circle display="inline" fill="#FFFFFF" cx="401.857" cy="79.349" r="9.75"/>
		<circle display="inline" fill="#FFFFFF" cx="440.105" cy="134.097" r="9.75"/>
		<circle display="inline" fill="#FFFFFF" cx="371.109" cy="143.847" r="9.75"/>
		<circle display="inline" fill="#FFFFFF" cx="281.864" cy="143.847" r="9.75"/>
		<path display="inline" fill="none" stroke="#FFFFFF" stroke-width="16" stroke-miterlimit="10" d="M540.189,350.588
			c-18.605,113.177-106.695,99.055-212.939,99.055c-104.848,0-192.093,3.042-212.267-100.873"/>
		<path display="inline" fill="none" stroke="#FFFFFF" stroke-width="16" stroke-miterlimit="10" d="M516.139,349.664
			c37.812,0,68.461-23.745,68.461-53.036s-30.649-53.037-68.461-53.037H141.585c-37.81,0-68.46,23.745-68.46,53.037
			c0,29.291,30.651,53.036,68.46,53.036H516.139z"/>
		<path display="inline" fill="none" stroke="#FFFFFF" stroke-width="16" stroke-miterlimit="10" d="M129.267,201.457
			c0-97.724,89.362-176.945,199.594-176.945s199.596,79.221,199.596,176.945"/>
		<g display="inline">
			<g>
				<path fill="#FFFFFF" d="M90.681,254.062c-2.398,0.508-7.465,1.09-10.72,1.006c-0.088-0.002-3.645-0.358-1.496-0.073
					c-1.009-0.134-2.002-0.358-2.992-0.587c-2.892-0.667,1.321,0.615-1.333-0.438c-1.127-0.446-2.176-1.058-3.202-1.696
					c-6.415-4.01-5.66-15.725-4.055-22.723c0.742-3.235,3.174-7.543,4.543-9.017c0.696-0.75,1.466-1.428,2.231-2.104
					c0.133-0.117,2.814-2.078,1.025-0.833c0.867-0.604,1.781-1.137,2.691-1.672c1.237-0.672,1.246-0.692,0.026-0.059
					c0.655-0.318,1.316-0.623,1.983-0.915c1.01-0.454,2.046-0.85,3.08-1.248c3.485-1.341-2.605,0.804,0.993-0.328
					c2.191-0.689,4.424-1.243,6.659-1.767c0.372-0.087,4.145-0.856,1.138-0.275c1.136-0.22,2.278-0.411,3.419-0.602
					c2.626-0.441,5.268-0.791,7.91-1.12c25.907-3.225,51.691-3.544,77.731-1.762c30.782,2.106,61.407,6.229,92.285,6.852
					c31.479,0.635,62.915-2.395,92.278-14.27c11.912-4.818,24.161-10.967,35.711-14.437c10.548-3.169,20.287-3.394,31.392-0.044
					c19.96,6.021,35.789,21.257,55.702,27.661c12,3.858,24.58,3.942,36.854,1.351c6.45-1.362,12.641-4.256,18.66-6.882
					c2.748-1.198,5.509-2.352,8.319-3.392c-1.979,0.732,2.436-0.602,2.241-0.552c-1.368,0.351,1.243-0.047,1.667-0.039
					c4.576,0.093,9.082,5.102,12.113,8.254c4.015,4.177,6.508,9.124,7.103,14.892c0.451,4.376-1.874,8.547-4.477,11.821
					c-2.827,3.557-6.104,4.56-10.33,6.015c-3.172,1.093-10.54,6.103-6.673,10.177c4.048,4.268,12.04,1.891,16.638,0.307
					c12.178-4.193,23.077-11.998,28.426-23.931c5.166-11.521-1.727-23.805-9.938-31.716c-11.349-10.93-26.041-12.001-40.693-7.752
					c-6.389,1.853-12.448,4.625-18.541,7.25c-2.608,1.125-4.985,2.059-6.53,2.53c2.077-0.634-2.101,0.283-2.089,0.282
					c-0.884,0.107-1.77,0.191-2.655,0.253c0.992-0.068,0.756-0.082-0.718-0.04c-18.503,0.11-36.516-15.083-53.237-23.62
					c-10.613-5.417-21.846-8.678-33.694-9.771c-14.84-1.368-29.964,2.93-43.794,7.826c-12.748,4.514-24.852,10.668-37.493,15.458
					c-12.237,4.635-26.112,6.307-39.956,7.389c-30.325,2.372-60.954-1.13-91.128-3.931c-31.424-2.916-62.866-5.062-94.374-2.025
					c-20.39,1.965-41.308,3.842-59.739,13.547c-16.381,8.626-28.083,27.215-21.776,46.083c6.87,20.549,36.112,16.806,52.227,13.393
					c3.65-0.771,12.23-4.583,10.852-9.727C103.495,251.658,94.34,253.288,90.681,254.062L90.681,254.062z"/>
			</g>
		</g>
		<g display="inline">
			<g>
				<path fill="#FFFFFF" d="M210.54,118.335c1.125,0,1.464-1.474,0.155-1.474C209.569,116.861,209.231,118.335,210.54,118.335
					L210.54,118.335z"/>
			</g>
		</g>
	</g>
	<g id="Layer_3" display="none">
		<circle display="inline" fill="#FFFFFF" cx="202.275" cy="192.078" r="9.139"/>
		<circle display="inline" fill="#FFFFFF" cx="261.442" cy="127.006" r="9.139"/>
		<circle display="inline" fill="#FFFFFF" cx="309.508" cy="77.2" r="9.139"/>
		<circle display="inline" fill="#FFFFFF" cx="318.647" cy="117.868" r="9.139"/>
		<circle display="inline" fill="#FFFFFF" cx="367.977" cy="138.387" r="9.139"/>
		<circle display="inline" fill="#FFFFFF" cx="270.582" cy="174.596" r="9.139"/>
		<circle display="inline" fill="#FFFFFF" cx="327.787" cy="189.27" r="9.139"/>
		<circle display="inline" fill="#FFFFFF" cx="391.628" cy="174.596" r="9.139"/>
		<path display="inline" fill="none" stroke="#FFFFFF" stroke-width="16" stroke-miterlimit="10" d="M469.612,440.496
			c0,4.543-3.348,8.229-7.477,8.229H156.879c-4.128,0-7.475-3.687-7.475-8.229V233.799c0-4.545,3.347-8.229,7.475-8.229h305.258
			c4.129,0,7.477,3.685,7.477,8.229L469.612,440.496L469.612,440.496z"/>
		<path display="inline" fill="none" stroke="#FFFFFF" stroke-width="16" stroke-miterlimit="10" d="M439.669,152.565l51.927,56.614
			c3.462,3.461,7.308,20.111-27.513,16.206"/>
		<path display="inline" fill="none" stroke="#FFFFFF" stroke-width="16" stroke-miterlimit="10" d="M154.351,225.569
			c-20.929,0.438-31.099-2.08-21.369-13.847L306.646,38.058c3.818-3.819,9.72-4.109,13.181-0.648l73.791,75.786"/>
		<path display="inline" fill="none" stroke="#FFFFFF" stroke-width="16" stroke-miterlimit="10" d="M358.838,442.258
			c0,3.57-0.961,6.468-2.146,6.468h-87.587c-1.185,0-2.145-2.896-2.145-6.468V279.807c0-3.574,0.96-6.47,2.145-6.47h87.587
			c1.187,0,2.146,2.896,2.146,6.47V442.258z"/>
		<path display="inline" fill="none" stroke="#FFFFFF" stroke-width="16" stroke-miterlimit="10" d="M441.311,158.039V28.435
			c0-2.85-0.519-5.16-1.159-5.16H392.79c-0.642,0-1.159,2.31-1.159,5.16v79.839"/>
	</g>
	<g id="Layer_4">
		<circle fill="#FFFFFF" cx="196.578" cy="192.65" r="9.776"/>
		<circle fill="#FFFFFF" cx="229.668" cy="125.445" r="9.775"/>
		<circle fill="#FFFFFF" cx="289.835" cy="74.39" r="9.776"/>
		<circle fill="#FFFFFF" cx="362.035" cy="102.242" r="9.776"/>
		<circle fill="#FFFFFF" cx="419.191" cy="154.4" r="9.776"/>
		<circle fill="#FFFFFF" cx="467.324" cy="219.131" r="9.776"/>
		<circle fill="#FFFFFF" cx="239.443" cy="233.608" r="9.776"/>
		<circle fill="#FFFFFF" cx="299.609" cy="164.175" r="9.775"/>
		<circle fill="#FFFFFF" cx="352.259" cy="228.908" r="9.777"/>
		<path fill="none" stroke="#FFFFFF" stroke-width="16" stroke-miterlimit="10" d="M475.24,123.238
			c-11.034-31.436-38.305-55.229-71.754-61.323c-14.08-33.108-46.903-56.326-85.15-56.326c-36.885,0-68.721,21.593-83.572,52.824
			c-44.365,4.361-79.678,39.563-84.201,83.881c-23.785,16.737-39.331,44.398-39.331,75.693c0,51.082,62.799,92.49,113.882,92.49
			c7.751,0,14.14-0.026,19.55-0.266v151.414h156.409V307.791c10.098,1.222,21.079,0.851,32.335-0.008
			c53.418-4.075,97.006-43.43,97.006-97.002C530.412,172.188,507.873,138.861,475.24,123.238z"/>
	</g>
</g>
</svg>
