<?xml version="1.0" encoding="utf-8"?>
<!-- Generator: Adobe Illustrator 15.1.0, SVG Export Plug-In . SVG Version: 6.00 Build 0)  -->
<!DOCTYPE svg PUBLIC "-//W3C//DTD SVG 1.1//EN" "http://www.w3.org/Graphics/SVG/1.1/DTD/svg11.dtd">
<svg version="1.1" xmlns="http://www.w3.org/2000/svg" xmlns:xlink="http://www.w3.org/1999/xlink" x="0px" y="0px" width="640px"
	 height="480px" viewBox="0 0 640 480" enable-background="new 0 0 640 480" xml:space="preserve">
<g id="Layer_2_1_" opacity="0.5">
	<ellipse opacity="0.5" cx="147.96" cy="265.319" rx="9.411" ry="10.145"/>
	<ellipse opacity="0.5" cx="188.907" cy="245.031" rx="9.41" ry="10.145"/>
	<ellipse opacity="0.5" cx="157.371" cy="330.598" rx="9.411" ry="10.144"/>
	<ellipse opacity="0.5" cx="198.316" cy="296.126" rx="9.412" ry="10.144"/>
	<ellipse opacity="0.5" cx="258.084" cy="227.982" rx="9.41" ry="10.143"/>
	<ellipse opacity="0.5" cx="248.673" cy="285.982" rx="9.411" ry="10.144"/>
	<ellipse opacity="0.5" cx="179.494" cy="374.518" rx="9.411" ry="10.144"/>
	<ellipse opacity="0.5" cx="218.49" cy="364.376" rx="9.412" ry="10.144"/>
	<ellipse opacity="0.5" cx="258.286" cy="340.741" rx="9.412" ry="10.144"/>
	<path opacity="0.5" d="M441.232,222.077"/>
	<path opacity="0.5" d="M218.489,220.267"/>
	<path opacity="0.5" d="M288.721,46.553"/>
	<path opacity="0.5" d="M337.702,47.33"/>
	<path opacity="0.5" d="M386.262,46.842"/>
	<path opacity="0.5" d="M446.285,220.356"/>
	<path opacity="0.5" fill="none" stroke="#000000" stroke-width="16" stroke-miterlimit="10" d="M139.354,396.218
		c-26.244-59.068-49.723-127.219-33.058-153.789c29.785-47.493,62.404-58.154,62.404-58.154s-8.981-142.553,61.903-173.221
		l165.901-0.001c75.316,31.361,73.482,174.418,73.482,174.418s30.042,9.464,59.829,56.959c16.208,25.844-5.565,91.039-30.923,148.94
		"/>
	<path opacity="0.5" fill="none" stroke="#000000" stroke-width="16" stroke-miterlimit="10" d="M227.735,180.979
		c0,0-15.375-115.088,48.693-114.167h26.704V159l-71.904,14.927"/>
	<path opacity="0.5" fill="none" stroke="#000000" stroke-width="16" stroke-miterlimit="10" d="M414.19,180.979
		c0,0,15.377-115.088-48.693-114.167h-26.703V159l71.905,14.927"/>
	
		<line opacity="0.5" fill="none" stroke="#000000" stroke-width="16" stroke-miterlimit="10" x1="303.132" y1="159.001" x2="338.792" y2="159.001"/>
	
		<line opacity="0.5" fill="none" stroke="#000000" stroke-width="16" stroke-miterlimit="10" x1="320.964" y1="159.001" x2="320.964" y2="465.471"/>
	<g opacity="0.5">
		<path fill="none" stroke="#000000" stroke-width="16" stroke-miterlimit="10" d="M259.174,384.363
			c0,44.795-26.759,81.107-59.768,81.107c-33.008,0-59.767-36.312-59.767-81.107"/>
		<path fill="none" stroke="#000000" stroke-width="16" stroke-miterlimit="10" d="M378.911,384.363
			c0,44.795-26.758,81.107-59.766,81.107c-33.01,0-59.767-36.312-59.767-81.107"/>
		<path fill="none" stroke="#000000" stroke-width="16" stroke-miterlimit="10" d="M498.445,387.198
			c0,44.793-26.757,81.106-59.766,81.106s-59.769-36.313-59.769-81.107"/>
	</g>
	<path opacity="0.5" fill="none" stroke="#000000" stroke-width="16" stroke-miterlimit="10" d="M139.64,384.363
		c0,44.795-26.759,81.107-59.767,81.107"/>
	<path opacity="0.5" fill="none" stroke="#000000" stroke-width="16" stroke-miterlimit="10" d="M497.712,393.395
		c0,44.791,26.76,81.105,59.768,81.105"/>
</g>
<g id="Layer_1">
	<g id="Layer_2" display="none">
		<rect x="-9" y="-89" display="inline" stroke="#000000" stroke-miterlimit="10" width="640" height="640"/>
	</g>
	<g id="Layer_1_1_" display="none">
		<circle display="inline" fill="#FFFFFF" cx="246.365" cy="63.35" r="9.75"/>
		<circle display="inline" fill="#FFFFFF" cx="194.617" cy="118.097" r="9.75"/>
		<circle display="inline" fill="#FFFFFF" cx="312.861" cy="53.6" r="9.75"/>
		<circle display="inline" fill="#FFFFFF" cx="385.857" cy="63.349" r="9.75"/>
		<circle display="inline" fill="#FFFFFF" cx="424.105" cy="118.097" r="9.75"/>
		<circle display="inline" fill="#FFFFFF" cx="355.109" cy="127.847" r="9.75"/>
		<circle display="inline" fill="#FFFFFF" cx="265.864" cy="127.847" r="9.75"/>
		<path display="inline" fill="none" stroke="#FFFFFF" stroke-width="16" stroke-miterlimit="10" d="M524.189,334.588
			c-18.605,113.177-106.695,99.055-212.939,99.055c-104.848,0-192.093,3.042-212.267-100.873"/>
		<path display="inline" fill="none" stroke="#FFFFFF" stroke-width="16" stroke-miterlimit="10" d="M500.139,333.664
			c37.812,0,68.461-23.745,68.461-53.036s-30.649-53.037-68.461-53.037H125.585c-37.81,0-68.46,23.745-68.46,53.037
			c0,29.291,30.651,53.036,68.46,53.036H500.139z"/>
		<path display="inline" fill="none" stroke="#FFFFFF" stroke-width="16" stroke-miterlimit="10" d="M113.267,185.457
			c0-97.724,89.362-176.945,199.594-176.945s199.596,79.221,199.596,176.945"/>
		<g display="inline">
			<g>
				<path fill="#FFFFFF" d="M74.681,238.062c-2.398,0.508-7.465,1.09-10.72,1.006c-0.088-0.002-3.645-0.358-1.496-0.073
					c-1.009-0.134-2.002-0.358-2.992-0.587c-2.892-0.667,1.321,0.615-1.333-0.438c-1.127-0.446-2.176-1.058-3.202-1.696
					c-6.415-4.01-5.66-15.725-4.055-22.723c0.742-3.235,3.174-7.543,4.543-9.017c0.696-0.75,1.466-1.428,2.231-2.104
					c0.133-0.117,2.814-2.078,1.025-0.833c0.867-0.604,1.781-1.137,2.691-1.672c1.237-0.672,1.246-0.692,0.026-0.059
					c0.655-0.318,1.316-0.623,1.983-0.915c1.01-0.454,2.046-0.85,3.08-1.248c3.485-1.341-2.605,0.804,0.993-0.328
					c2.191-0.689,4.424-1.243,6.659-1.767c0.372-0.087,4.145-0.856,1.138-0.275c1.136-0.22,2.278-0.411,3.419-0.602
					c2.626-0.441,5.268-0.791,7.91-1.12c25.907-3.225,51.691-3.544,77.731-1.762c30.782,2.106,61.407,6.229,92.285,6.852
					c31.479,0.635,62.915-2.395,92.278-14.27c11.912-4.818,24.161-10.967,35.711-14.437c10.548-3.169,20.287-3.394,31.392-0.044
					c19.96,6.021,35.789,21.257,55.702,27.661c12,3.858,24.58,3.942,36.854,1.351c6.45-1.362,12.641-4.256,18.66-6.882
					c2.748-1.198,5.509-2.352,8.319-3.392c-1.979,0.732,2.436-0.602,2.241-0.552c-1.368,0.351,1.243-0.047,1.667-0.039
					c4.576,0.093,9.082,5.102,12.113,8.254c4.015,4.177,6.508,9.124,7.103,14.892c0.451,4.376-1.874,8.547-4.477,11.821
					c-2.827,3.557-6.104,4.56-10.33,6.015c-3.172,1.093-10.54,6.103-6.673,10.177c4.048,4.268,12.04,1.891,16.638,0.307
					c12.178-4.193,23.077-11.998,28.426-23.931c5.166-11.521-1.727-23.805-9.938-31.716c-11.349-10.93-26.041-12.001-40.693-7.752
					c-6.389,1.853-12.448,4.625-18.541,7.25c-2.608,1.125-4.985,2.059-6.53,2.53c2.077-0.634-2.101,0.283-2.089,0.282
					c-0.884,0.107-1.77,0.191-2.655,0.253c0.992-0.068,0.756-0.082-0.718-0.04c-18.503,0.11-36.516-15.083-53.237-23.62
					c-10.613-5.417-21.846-8.678-33.694-9.771c-14.84-1.368-29.964,2.93-43.794,7.826c-12.748,4.514-24.852,10.668-37.493,15.458
					c-12.237,4.635-26.112,6.307-39.956,7.389c-30.325,2.372-60.954-1.13-91.128-3.931c-31.424-2.916-62.866-5.062-94.374-2.025
					c-20.39,1.965-41.308,3.842-59.739,13.547c-16.381,8.626-28.083,27.215-21.776,46.083c6.87,20.549,36.112,16.806,52.227,13.393
					c3.65-0.771,12.23-4.583,10.852-9.727C87.495,235.658,78.34,237.288,74.681,238.062L74.681,238.062z"/>
			</g>
		</g>
		<g display="inline">
			<g>
				<path fill="#FFFFFF" d="M194.54,102.335c1.125,0,1.464-1.474,0.155-1.474C193.569,100.861,193.231,102.335,194.54,102.335
					L194.54,102.335z"/>
			</g>
		</g>
	</g>
	<g id="Layer_3" display="none">
		<circle display="inline" fill="#FFFFFF" cx="186.275" cy="176.078" r="9.139"/>
		<circle display="inline" fill="#FFFFFF" cx="245.442" cy="111.006" r="9.139"/>
		<circle display="inline" fill="#FFFFFF" cx="293.508" cy="61.2" r="9.139"/>
		<circle display="inline" fill="#FFFFFF" cx="302.647" cy="101.868" r="9.139"/>
		<circle display="inline" fill="#FFFFFF" cx="351.977" cy="122.387" r="9.139"/>
		<circle display="inline" fill="#FFFFFF" cx="254.582" cy="158.596" r="9.139"/>
		<circle display="inline" fill="#FFFFFF" cx="311.787" cy="173.27" r="9.139"/>
		<circle display="inline" fill="#FFFFFF" cx="375.628" cy="158.596" r="9.139"/>
		<path display="inline" fill="none" stroke="#FFFFFF" stroke-width="16" stroke-miterlimit="10" d="M453.612,424.496
			c0,4.543-3.348,8.229-7.477,8.229H140.879c-4.128,0-7.475-3.687-7.475-8.229V217.799c0-4.545,3.347-8.229,7.475-8.229h305.258
			c4.129,0,7.477,3.685,7.477,8.229L453.612,424.496L453.612,424.496z"/>
		<path display="inline" fill="none" stroke="#FFFFFF" stroke-width="16" stroke-miterlimit="10" d="M423.669,136.565l51.927,56.614
			c3.462,3.461,7.308,20.111-27.513,16.206"/>
		<path display="inline" fill="none" stroke="#FFFFFF" stroke-width="16" stroke-miterlimit="10" d="M138.351,209.569
			c-20.929,0.438-31.099-2.08-21.369-13.847L290.646,22.058c3.818-3.819,9.72-4.109,13.181-0.648l73.791,75.786"/>
		<path display="inline" fill="none" stroke="#FFFFFF" stroke-width="16" stroke-miterlimit="10" d="M342.838,426.258
			c0,3.57-0.961,6.468-2.146,6.468h-87.587c-1.185,0-2.145-2.896-2.145-6.468V263.807c0-3.574,0.96-6.47,2.145-6.47h87.587
			c1.187,0,2.146,2.896,2.146,6.47V426.258z"/>
		<path display="inline" fill="none" stroke="#FFFFFF" stroke-width="16" stroke-miterlimit="10" d="M425.311,142.039V12.435
			c0-2.85-0.519-5.16-1.159-5.16H376.79c-0.642,0-1.159,2.31-1.159,5.16v79.839"/>
	</g>
	<g id="Layer_4" display="none">
		<circle display="inline" fill="#FFFFFF" cx="195.049" cy="182.245" r="9.18"/>
		<circle display="inline" fill="#FFFFFF" cx="226.122" cy="119.137" r="9.179"/>
		<circle display="inline" fill="#FFFFFF" cx="282.62" cy="71.195" r="9.18"/>
		<circle display="inline" fill="#FFFFFF" cx="350.418" cy="97.349" r="9.18"/>
		<circle display="inline" fill="#FFFFFF" cx="404.09" cy="146.327" r="9.18"/>
		<circle display="inline" fill="#FFFFFF" cx="449.288" cy="207.111" r="9.18"/>
		<circle display="inline" fill="#FFFFFF" cx="235.301" cy="220.705" r="9.18"/>
		<circle display="inline" fill="#FFFFFF" cx="291.799" cy="155.506" r="9.179"/>
		<circle display="inline" fill="#FFFFFF" cx="341.238" cy="216.292" r="9.18"/>
		<path display="inline" fill="none" stroke="#FFFFFF" stroke-width="16" stroke-miterlimit="10" d="M456.722,117.065
			c-10.362-29.519-35.97-51.862-67.379-57.584c-13.222-31.09-44.044-52.892-79.959-52.892c-34.636,0-64.531,20.276-78.477,49.603
			c-41.66,4.095-74.819,37.151-79.066,78.767c-22.335,15.717-36.933,41.691-36.933,71.078c0,47.967,58.97,86.852,106.938,86.852
			c7.279,0,13.278-0.025,18.358-0.25V434.82h146.872V290.365c9.482,1.147,19.794,0.799,30.364-0.007
			c50.16-3.827,91.09-40.782,91.09-91.088C508.529,163.03,487.364,131.735,456.722,117.065z"/>
	</g>
	<g id="Layer_5_1_">
		<ellipse fill="#FFFFFF" cx="144.688" cy="262.047" rx="9.412" ry="10.144"/>
		<ellipse fill="#FFFFFF" cx="185.634" cy="241.76" rx="9.411" ry="10.145"/>
		<ellipse fill="#FFFFFF" cx="154.099" cy="327.326" rx="9.41" ry="10.143"/>
		<ellipse fill="#FFFFFF" cx="195.044" cy="292.854" rx="9.411" ry="10.145"/>
		<ellipse fill="#FFFFFF" cx="254.811" cy="224.71" rx="9.411" ry="10.143"/>
		<ellipse fill="#FFFFFF" cx="245.4" cy="282.71" rx="9.411" ry="10.144"/>
		<ellipse fill="#FFFFFF" cx="176.221" cy="371.246" rx="9.412" ry="10.144"/>
		<ellipse fill="#FFFFFF" cx="215.218" cy="361.104" rx="9.411" ry="10.144"/>
		<ellipse fill="#FFFFFF" cx="255.014" cy="337.469" rx="9.412" ry="10.144"/>
		<path fill="none" stroke="#FFFFFF" stroke-width="16" stroke-miterlimit="10" d="M437.96,218.804"/>
		<path fill="none" stroke="#FFFFFF" stroke-width="16" stroke-miterlimit="10" d="M215.217,216.995"/>
		<path fill="none" stroke="#FFFFFF" stroke-width="16" stroke-miterlimit="10" d="M285.448,43.28"/>
		<path fill="none" stroke="#FFFFFF" stroke-width="16" stroke-miterlimit="10" d="M334.43,44.057"/>
		<path fill="none" stroke="#FFFFFF" stroke-width="16" stroke-miterlimit="10" d="M382.99,43.57"/>
		<path fill="none" stroke="#FFFFFF" stroke-width="16" stroke-miterlimit="10" d="M443.013,217.084"/>
		<path fill="none" stroke="#FFFFFF" stroke-width="16" stroke-miterlimit="10" d="M134.99,391.854
			c-26.244-59.067-49.722-127.219-33.058-153.789c29.786-47.494,62.404-58.154,62.404-58.154S155.354,37.358,226.239,6.69
			l165.9-0.001c75.317,31.361,73.482,174.418,73.482,174.418s30.042,9.464,59.828,56.96c16.209,25.844-5.564,91.039-30.922,148.94"
			/>
		<path fill="none" stroke="#FFFFFF" stroke-width="16" stroke-miterlimit="10" d="M223.372,176.616
			c0,0-15.376-115.088,48.693-114.167h26.704v92.188l-71.904,14.927"/>
		<path fill="none" stroke="#FFFFFF" stroke-width="16" stroke-miterlimit="10" d="M409.827,176.616
			c0,0,15.376-115.088-48.693-114.167h-26.702v92.188l71.903,14.927"/>
		
			<line fill="none" stroke="#FFFFFF" stroke-width="16" stroke-miterlimit="10" x1="298.769" y1="154.638" x2="334.43" y2="154.638"/>
		
			<line fill="none" stroke="#FFFFFF" stroke-width="16" stroke-miterlimit="10" x1="316.602" y1="154.638" x2="316.602" y2="461.107"/>
		<g>
			<path fill="none" stroke="#FFFFFF" stroke-width="16" stroke-miterlimit="10" d="M254.811,380.001
				c0,44.794-26.759,81.106-59.767,81.106c-33.009,0-59.768-36.312-59.768-81.106"/>
			<path fill="none" stroke="#FFFFFF" stroke-width="16" stroke-miterlimit="10" d="M374.549,380.001
				c0,44.794-26.76,81.106-59.767,81.106c-33.01,0-59.767-36.312-59.767-81.106"/>
			<path fill="none" stroke="#FFFFFF" stroke-width="16" stroke-miterlimit="10" d="M494.082,382.835
				c0,44.792-26.756,81.106-59.765,81.106c-33.011,0-59.769-36.314-59.769-81.107"/>
		</g>
		<path fill="none" stroke="#FFFFFF" stroke-width="16" stroke-miterlimit="10" d="M135.276,380.001
			c0,44.794-26.759,81.106-59.766,81.106"/>
		<path fill="none" stroke="#FFFFFF" stroke-width="16" stroke-miterlimit="10" d="M493.35,389.03
			c0,44.793,26.759,81.106,59.766,81.106"/>
	</g>
</g>
</svg>
