<?xml version="1.0" encoding="utf-8"?>
<!-- Generator: Adobe Illustrator 15.1.0, SVG Export Plug-In . SVG Version: 6.00 Build 0)  -->
<!DOCTYPE svg PUBLIC "-//W3C//DTD SVG 1.1//EN" "http://www.w3.org/Graphics/SVG/1.1/DTD/svg11.dtd">
<svg version="1.1" xmlns="http://www.w3.org/2000/svg" xmlns:xlink="http://www.w3.org/1999/xlink" x="0px" y="0px" width="640px"
	 height="480px" viewBox="0 0 640 480" enable-background="new 0 0 640 480" xml:space="preserve">
<g id="Layer_2" display="none">
	<rect x="7" y="-73" display="inline" stroke="#000000" stroke-miterlimit="10" width="640" height="640"/>
</g>
<g id="Layer_1" display="none">
	<circle display="inline" fill="#FFFFFF" cx="262.365" cy="79.35" r="9.75"/>
	<circle display="inline" fill="#FFFFFF" cx="210.617" cy="134.097" r="9.75"/>
	<circle display="inline" fill="#FFFFFF" cx="328.862" cy="69.6" r="9.75"/>
	<circle display="inline" fill="#FFFFFF" cx="401.857" cy="79.349" r="9.75"/>
	<circle display="inline" fill="#FFFFFF" cx="440.105" cy="134.097" r="9.75"/>
	<circle display="inline" fill="#FFFFFF" cx="371.109" cy="143.847" r="9.75"/>
	<circle display="inline" fill="#FFFFFF" cx="281.864" cy="143.847" r="9.75"/>
	<path display="inline" fill="none" stroke="#FFFFFF" stroke-width="16" stroke-miterlimit="10" d="M540.189,350.588
		c-18.605,113.177-106.695,99.055-212.939,99.055c-104.848,0-192.093,3.042-212.267-100.873"/>
	<path display="inline" fill="none" stroke="#FFFFFF" stroke-width="16" stroke-miterlimit="10" d="M516.139,349.664
		c37.81,0,68.461-23.745,68.461-53.036s-30.651-53.037-68.461-53.037H141.585c-37.81,0-68.46,23.745-68.46,53.037
		c0,29.291,30.651,53.036,68.46,53.036H516.139z"/>
	<path display="inline" fill="none" stroke="#FFFFFF" stroke-width="16" stroke-miterlimit="10" d="M129.267,201.457
		c0-97.724,89.362-176.945,199.594-176.945c110.234,0,199.596,79.221,199.596,176.945"/>
	<g display="inline">
		<g>
			<path fill="#FFFFFF" d="M90.681,254.063c-2.398,0.508-7.465,1.089-10.72,1.005c-0.088-0.002-3.645-0.358-1.496-0.073
				c-1.009-0.134-2.002-0.358-2.992-0.587c-2.892-0.667,1.321,0.616-1.333-0.437c-1.127-0.447-2.176-1.058-3.202-1.698
				c-6.415-4.009-5.66-15.723-4.055-22.721c0.742-3.235,3.174-7.543,4.543-9.017c0.696-0.75,1.466-1.428,2.231-2.104
				c0.133-0.117,2.814-2.078,1.025-0.833c0.867-0.604,1.781-1.137,2.691-1.672c1.237-0.672,1.246-0.692,0.026-0.059
				c0.655-0.318,1.316-0.623,1.983-0.915c1.01-0.454,2.046-0.85,3.08-1.248c3.485-1.341-2.605,0.804,0.993-0.328
				c2.191-0.689,4.424-1.243,6.659-1.767c0.372-0.087,4.145-0.856,1.138-0.275c1.136-0.22,2.278-0.411,3.419-0.602
				c2.626-0.441,5.268-0.791,7.91-1.12c25.907-3.225,51.691-3.544,77.731-1.762c30.782,2.106,61.407,6.229,92.285,6.852
				c31.479,0.635,62.915-2.395,92.278-14.27c11.912-4.818,24.161-10.967,35.711-14.437c10.548-3.169,20.287-3.394,31.392-0.044
				c19.959,6.021,35.789,21.257,55.702,27.661c12,3.858,24.58,3.942,36.853,1.351c6.45-1.362,12.641-4.256,18.66-6.882
				c2.748-1.198,5.509-2.352,8.321-3.392c-1.98,0.732,2.434-0.602,2.241-0.552c-1.368,0.351,1.243-0.047,1.667-0.039
				c4.576,0.093,9.082,5.102,12.113,8.254c4.015,4.177,6.508,9.124,7.103,14.892c0.451,4.376-1.874,8.547-4.477,11.821
				c-2.827,3.557-6.103,4.56-10.33,6.015c-3.172,1.093-10.54,6.102-6.673,10.177c4.048,4.267,12.04,1.889,16.638,0.306
				c12.178-4.194,23.077-11.999,28.426-23.93c5.166-11.521-1.727-23.805-9.939-31.716c-11.347-10.93-26.041-12.001-40.693-7.752
				c-6.389,1.853-12.449,4.625-18.541,7.25c-2.61,1.125-4.987,2.059-6.531,2.53c2.078-0.634-2.1,0.283-2.088,0.282
				c-0.884,0.107-1.77,0.191-2.657,0.253c0.994-0.068,0.756-0.082-0.716-0.04c-18.503,0.11-36.516-15.083-53.239-23.62
				c-10.613-5.417-21.844-8.678-33.694-9.771c-14.84-1.368-29.964,2.93-43.794,7.826c-12.748,4.514-24.851,10.668-37.493,15.458
				c-12.237,4.635-26.112,6.307-39.956,7.389c-30.325,2.372-60.954-1.13-91.128-3.931c-31.424-2.916-62.866-5.062-94.374-2.025
				c-20.39,1.965-41.308,3.842-59.739,13.547c-16.381,8.626-28.083,27.215-21.776,46.082c6.87,20.549,36.112,16.805,52.227,13.392
				c3.65-0.772,12.23-4.583,10.852-9.727C103.495,251.658,94.34,253.288,90.681,254.063L90.681,254.063z"/>
		</g>
	</g>
	<g display="inline">
		<g>
			<path fill="#FFFFFF" d="M210.54,118.335c1.125,0,1.464-1.474,0.155-1.474C209.569,116.861,209.231,118.335,210.54,118.335
				L210.54,118.335z"/>
		</g>
	</g>
</g>
<g id="Layer_3">
	<circle fill="#FFFFFF" cx="268.061" cy="222.064" r="10.071"/>
	<circle fill="#FFFFFF" cx="268.061" cy="269.206" r="10.071"/>
	<circle fill="#FFFFFF" cx="318.201" cy="222.063" r="10.07"/>
	<circle fill="#FFFFFF" cx="318.201" cy="269.206" r="10.07"/>
	<circle fill="#FFFFFF" cx="367.48" cy="222.063" r="10.071"/>
	<circle fill="#FFFFFF" cx="367.48" cy="269.206" r="10.071"/>
	<path fill="none" stroke="#FFFFFF" stroke-width="16" stroke-miterlimit="10" d="M119.589,383.467v10.49
		c0,28.977,25.22,52.463,56.333,52.463c31.11,0,56.33-23.486,56.33-52.463V106.915c0-28.975-25.22-52.464-56.33-52.464
		c-31.112,0-56.333,23.489-56.333,52.464v23.66"/>
	<path fill="none" stroke="#FFFFFF" stroke-width="16" stroke-miterlimit="10" d="M127.563,130.669
		c-3.061-0.454-6.232-0.69-9.479-0.69c-25.978,0-47.037,15.228-47.037,34.01v3.332"/>
	<path fill="none" stroke="#FFFFFF" stroke-width="16" stroke-miterlimit="10" d="M71.048,333.621v16.431
		c0,18.783,21.058,34.011,47.037,34.011c2.985,0,5.905-0.2,8.737-0.586"/>
	<path fill="none" stroke="#FFFFFF" stroke-width="16" stroke-miterlimit="10" d="M78.295,167.913
		c-15.99,0-28.954,9.892-28.954,22.092v120.862c0,12.2,12.964,22.089,28.954,22.089"/>
	
		<rect x="232.252" y="189.484" fill="none" stroke="#FFFFFF" stroke-width="16" stroke-miterlimit="10" width="177.576" height="126.579"/>
	
		<line fill="none" stroke="#FFFFFF" stroke-width="16" stroke-miterlimit="10" x1="119.589" y1="118.429" x2="119.589" y2="393.187"/>
	<line fill="none" stroke="#FFFFFF" stroke-width="16" stroke-miterlimit="10" x1="71.048" y1="167.32" x2="71.048" y2="337.407"/>
	<path fill="none" stroke="#FFFFFF" stroke-width="16" stroke-miterlimit="10" d="M522.493,385.357v10.488
		c0,28.977-25.221,52.465-56.332,52.465c-31.11,0-56.333-23.488-56.333-52.465V108.805c0-28.976,25.223-52.466,56.333-52.466
		c31.111,0,56.332,23.49,56.332,52.466v23.658"/>
	<path fill="none" stroke="#FFFFFF" stroke-width="16" stroke-miterlimit="10" d="M514.519,132.558
		c3.061-0.452,6.23-0.69,9.479-0.69c25.977,0,47.037,15.228,47.037,34.01v3.333"/>
	<path fill="none" stroke="#FFFFFF" stroke-width="16" stroke-miterlimit="10" d="M571.035,335.51v16.432
		c0,18.783-21.06,34.011-47.037,34.011c-2.986,0-5.907-0.2-8.738-0.584"/>
	<path fill="none" stroke="#FFFFFF" stroke-width="16" stroke-miterlimit="10" d="M563.788,169.802
		c15.988,0,28.953,9.892,28.953,22.092v120.861c0,12.2-12.963,22.093-28.953,22.093"/>
	
		<line fill="none" stroke="#FFFFFF" stroke-width="16" stroke-miterlimit="10" x1="522.493" y1="120.319" x2="522.493" y2="395.075"/>
	
		<line fill="none" stroke="#FFFFFF" stroke-width="16" stroke-miterlimit="10" x1="571.035" y1="169.21" x2="571.035" y2="339.299"/>
</g>
</svg>
