<?xml version="1.0" encoding="utf-8"?>
<!-- Generator: Adobe Illustrator 15.1.0, SVG Export Plug-In . SVG Version: 6.00 Build 0)  -->
<!DOCTYPE svg PUBLIC "-//W3C//DTD SVG 1.1//EN" "http://www.w3.org/Graphics/SVG/1.1/DTD/svg11.dtd">
<svg version="1.1" id="Layer_1" xmlns="http://www.w3.org/2000/svg" xmlns:xlink="http://www.w3.org/1999/xlink" x="0px" y="0px"
	 width="1920px" height="282.982px" viewBox="0 143 1920 282.982" enable-background="new 0 143 1920 282.982" xml:space="preserve"
	>
<g id="ni0y61_1_">
	
		<image overflow="visible" enable-background="new    " width="835" height="316" id="ni0y61_2_" xlink:href="EA8CC2CF.jpeg"  transform="matrix(3.2718 0 0 3.269 -1019 847.002)">
	</image>
</g>
<polygon fill="none" points="3057.903,1188.094 1773,857.902 1776.121,576 3061.025,906.191 "/>
<text transform="matrix(1.1046 0 0 1 1903.6006 891.4697)" fill="#EDF0F1" font-family="'CherrySwash-Bold'" font-size="170.8897">H</text>
<g>
	<path fill="#EDF0F1" d="M120.755,298.246c-10.11,13.187-26.25,19.778-48.433,19.778s-38.578-6.284-49.171-18.855
		C12.557,286.597,7.254,271.44,7.254,253.694c0-28.098,13.188-50.155,39.559-66.178c26.37-16.02,68.517-24.032,126.44-24.032h59.894
		v44.365h-32.166v63.59h99.084v-63.588H267.9v-44.365h116.089v44.365h-35.86v170.066h35.86v44.364H267.9v-44.364h32.166v-62.109
		h-99.084v62.11h32.166v44.364H117.06v-44.364h35.86V208.221c-36.971,0.988-62.792,4.991-77.455,12.016
		c-14.667,7.023-21.998,17.688-21.998,31.98c0,14.296,6.285,21.443,18.855,21.443c11.582,0,17.376-7.886,17.376-23.662h46.214
		C135.912,268.981,130.857,285.063,120.755,298.246z"/>
	<path fill="#EDF0F1" d="M462.361,425.98c-18.733,0-33.4-4.807-43.997-14.419c-10.599-9.613-15.897-23.106-15.897-40.482
		c0-17.377,6.897-32.103,20.704-44.182c13.802-12.072,34.134-18.114,61.003-18.114h29.207v-13.31
		c0-11.582-7.272-17.376-21.813-17.376c-14.546,0-27.485,1.607-38.82,4.805v21.073h-42.518v-55.087
		c12.075-4.679,26.187-8.376,42.333-11.092c16.14-2.709,29.633-4.066,40.482-4.066c21.443,0,38.202,5.608,50.281,16.822
		c12.075,11.218,18.116,26.191,18.116,44.919v87.989h30.315v32.166c-10.6,5.674-23.91,8.504-39.928,8.504
		c-25.637,0-38.449-8.623-38.449-25.881C498.098,416.737,481.089,425.98,462.361,425.98z M465.689,381.614
		c17.008,0,32.904-10.104,47.693-30.314v-1.478h-29.577c-11.341,0-19.723,1.975-25.141,5.912c-5.426,3.944-8.134,9.243-8.134,15.897
		C450.53,378.287,455.58,381.614,465.689,381.614z"/>
	<path fill="#EDF0F1" d="M772.915,401.209c-19.225,16.517-43.503,24.771-72.834,24.771c-29.335,0-51.945-9.057-67.842-27.175
		c-15.895-18.115-23.845-41.096-23.845-68.951c0-27.85,7.95-50.834,23.845-68.951c15.897-18.115,37.093-27.173,63.591-27.173
		c26.492,0,49.229,5.054,68.211,15.158v60.633h-42.518v-28.468c-6.654-1.97-14.177-2.958-22.552-2.958
		c-13.31,0-23.725,4.806-31.241,14.419c-7.52,9.612-11.276,22.061-11.276,37.34c0,15.286,3.754,27.729,11.276,37.34
		c7.517,9.613,17.007,14.419,28.468,14.419c11.461,0,21.072-1.109,28.836-3.328c7.764-2.22,13.182-4.25,16.268-6.099
		c3.081-1.848,7.209-4.623,12.385-8.32L772.915,401.209z"/>
	<path fill="#EDF0F1" d="M782.526,185.669V145h76.528v162.303l12.94-4.807l24.771-24.4h-12.57v-40.667h96.125v40.667h-20.702
		l-47.324,46.953l47.693,58.413h28.096v32.166c-5.424,3.208-10.23,5.425-14.418,6.654c-4.192,1.232-10.971,1.851-20.333,1.851
		c-9.37,0-17.006-1.664-22.922-4.989c-5.916-3.326-11.462-8.441-16.637-15.345l-42.888-56.194l-11.83,4.805v29.205h24.771v40.668
		h-101.67v-40.668h28.838V185.669H782.526z"/>
</g>
<g>
	<path fill="#EDF0F1" d="M1103.107,185.669V145h76.527v236.615h32.168v40.668h-109.065v-40.668h28.836V185.669H1103.107z"/>
	<path fill="#EDF0F1" d="M1236.201,278.096v-40.667h76.529v144.186h32.164v40.668h-109.063v-40.668h28.837V278.096H1236.201z
		 M1288.7,219.312c-7.643,0-13.863-2.708-18.669-8.134c-4.807-5.417-7.21-11.952-7.21-19.596c0-7.636,2.588-14.233,7.765-19.779
		c5.175-5.545,11.645-8.319,19.409-8.319c7.764,0,13.985,2.715,18.67,8.134c4.679,5.423,7.025,11.958,7.025,19.594
		c0,7.643-2.59,14.234-7.765,19.779S1296.338,219.312,1288.7,219.312z"/>
	<path fill="#EDF0F1" d="M1357.831,278.096v-40.667h87.62v40.667h-12.199l27.359,80.225l27.359-80.225h-12.199v-40.667h87.62v40.667
		h-22.921l-53.237,144.186h-53.239l-53.237-144.186H1357.831z"/>
	<path fill="#EDF0F1" d="M1753.049,328.378v19.596h-124.963c0.74,9.858,4.863,17.929,12.384,24.214
		c7.516,6.285,16.325,9.427,26.436,9.427c10.104,0,18.671-0.739,25.695-2.218c7.023-1.479,11.953-2.829,14.788-4.067
		c2.83-1.229,7.082-3.448,12.754-6.653l8.875-4.807l19.225,37.342c-20.213,16.517-45.354,24.771-75.42,24.771
		c-30.073,0-53.054-9.057-68.95-27.175c-15.898-18.115-23.847-41.096-23.847-68.95c0-27.85,7.948-50.835,23.847-68.951
		c15.896-18.115,37.583-27.174,65.067-27.174c27.482,0,48.371,8.874,62.667,26.619
		C1745.896,278.096,1753.049,300.775,1753.049,328.378z M1694.818,286.968c-5.793-5.915-14.049-8.873-24.771-8.873
		c-10.724,0-19.597,3.021-26.621,9.058c-7.024,6.042-11.646,13.864-13.863,23.477h75.421
		C1703.998,300.775,1700.606,292.886,1694.818,286.968z"/>
	<path fill="#EDF0F1" d="M1771.529,278.096v-36.971l32.165-3.697c8.135-20.456,13.431-36.724,15.898-48.801h32.165v48.801h43.995
		v40.667h-43.995v91.319c0,4.193,0.676,7.337,2.032,9.429c1.354,2.098,4.374,3.141,9.06,3.141c4.678,0,12.812-2.338,24.4-7.024
		l17.747,37.711c-15.776,8.873-32.598,13.31-50.467,13.31c-17.873,0-30.812-4.679-38.817-14.049
		c-8.014-9.363-12.015-21.563-12.015-36.603v-97.231H1771.529z"/>
</g>
<rect x="988.5" y="-575.174" fill="#61325B" width="93.948" height="147.271"/>
<rect x="487.902" y="-295.771" fill="#B15AA3" width="93.949" height="147.271"/>
<rect x="487.808" y="-463.174" fill="#61325B" width="93.948" height="147.271"/>
<rect x="487.808" y="-631" fill="#452442" width="93.948" height="147.271"/>
</svg>
