<?xml version="1.0" encoding="utf-8"?>
<!-- Generator: Adobe Illustrator 15.1.0, SVG Export Plug-In . SVG Version: 6.00 Build 0)  -->
<!DOCTYPE svg PUBLIC "-//W3C//DTD SVG 1.1//EN" "http://www.w3.org/Graphics/SVG/1.1/DTD/svg11.dtd">
<svg version="1.1" id="Layer_1" xmlns="http://www.w3.org/2000/svg" xmlns:xlink="http://www.w3.org/1999/xlink" x="0px" y="0px"
	 width="473.271px" height="735.725px" viewBox="0 -159.725 473.271 735.725" enable-background="new 0 -159.725 473.271 735.725"
	 xml:space="preserve">
<g id="ni0y61_1_">
</g>
<polygon fill="none" points="3057.903,1188.094 1773,857.902 1776.121,576 3061.025,906.191 "/>
<text transform="matrix(1.1046 0 0 1 1903.6006 891.4697)" fill="#EDF0F1" font-family="'CherrySwash-Bold'" font-size="170.8897">H</text>
<rect x="988.5" y="-575.174" fill="#61325B" width="93.948" height="147.271"/>
<rect x="487.808" y="-463.174" fill="#61325B" width="93.948" height="147.271"/>
<rect x="487.808" y="-631" fill="#452442" width="93.948" height="147.271"/>
<path fill="#FFFFFF" stroke="#FFFFFF" stroke-width="16" stroke-miterlimit="10" d="M234.075,47.946
	c-14.003-0.388-69.703,8.805-68.521,7.547c16.598-17.653-4.687-51.765,71.481-51.765c69.647,0,45.147,27.812,66.347,52.493
	c2.474,2.881-36.908-8.275-66.983-8.275H234.075L234.075,47.946z"/>
<g>
	<path fill="#FFFFFF" d="M335.414,424.455c-3.303-2.538-7.624-3.43-12.967-2.674c-5.342,0.755-9.55,2.887-12.624,6.389
		c-3.072,3.506-4.824,7.729-5.25,12.675l37.573-5.318C340.96,430.687,338.715,426.994,335.414,424.455z"/>
	<path fill="#FFFFFF" d="M439.385,302.144l8.244-1.146c-3.808-17.365-9.648-33.967-17.257-49.549l-18.898,24.8L439.385,302.144z"/>
	<path fill="#FFFFFF" d="M186.755,323.134c-2.438,2.35-3.425,5.188-2.962,8.515c0.462,3.328,3.219,4.641,8.274,3.938
		c8.505-1.183,15.753-7.341,21.743-18.476l-0.103-0.739l-14.792,2.057C193.245,319.218,189.191,320.787,186.755,323.134z"/>
	<path fill="#FFFFFF" d="M448.925,320.606c-2.012,0.907-5.358,1.688-10.04,2.337c-4.686,0.652-8.62,0.353-11.81-0.9
		c-3.189-1.251-6.319-3.424-9.387-6.518l-25.354-25.119l-5.583,3.226l2.031,14.604l12.388-1.722l2.828,20.337l-50.844,7.069
		l-2.827-20.337l14.421-2.006l-13.624-97.988l-14.236,1.979l-2.827-20.338l38.271-5.321l11.284,81.165l6.138-3.303l10.69-13.925
		l-6.286,0.874l-2.827-20.336l27.424-3.813c-21.564-34.244-52.22-62.188-88.58-80.443c-29.941-15.026,24.061-74.181-91.822-74.181
		c-130.82,0-73.233,58.161-101.802,71.54c-44.304,20.742-80.628,55.686-103.131,98.966l27.193-3.781l3.085,22.187l-16.086,2.236
		l4.422,31.801l49.55-6.891l-4.421-31.799l-16.084,2.237l-3.084-22.186l58.053-8.071l3.084,22.186l-17.934,2.493l11.825,85.048
		l17.934-2.494l3.084,22.187l-58.053,8.071L92.9,347.49l16.085-2.237l-4.318-31.06l-49.55,6.89l4.319,31.06l16.085-2.236
		l3.084,22.187l-58.053,8.071l-3.084-22.187l17.933-2.493l-11.799-84.861c-0.352,0.059-0.686,0.119-1.033,0.178
		c-2.715,7.241-5.065,14.66-7.023,22.237l2.457-0.342c1.319,9.494-0.09,17.887-4.225,25.182c-1.041,1.835-2.302,3.486-3.782,4.958
		c-0.99,8.513-1.507,17.17-1.507,25.949c0,53.163,18.685,101.956,49.832,140.194l-10.653-75.286L33.484,415.7l-2.867-20.262
		l38.126-5.393l16.68,117.878l16.025-2.267l2.867,20.261l-6.537,0.925c37.054,27.693,83.041,44.092,132.857,44.092
		c73.115,0,137.973-35.327,178.456-89.838c-1.727-0.741-3.276-1.706-4.639-2.908c-4.652-4.101-7.506-9.897-8.565-17.39
		l-6.854-48.439l-16.026,2.268l-2.606-18.419l15.764-4.11c2.611-10.764,4.102-19.241,4.481-25.433l16.023-2.267l3.44,24.312
		l21.918-3.103l2.865,20.262l-21.918,3.1l6.439,45.494c0.295,2.092,0.854,3.608,1.676,4.556c0.428,0.493,1.063,0.81,1.899,0.957
		c18.944-32.703,29.796-70.679,29.796-111.191c0-9.898-0.654-19.643-1.909-29.198C450.204,319.973,449.549,320.324,448.925,320.606z
		 M175.505,264.579c7.883-2.478,14.536-4.094,19.961-4.849c10.723-1.49,19.495,0.148,26.315,4.917
		c6.818,4.77,10.88,11.838,12.183,21.205l6.117,44.001l15.16-2.107l2.236,16.085c-4.906,3.574-11.365,5.915-19.376,7.029
		c-12.82,1.782-19.828-1.64-21.027-10.27c-6.358,10.308-14.221,16.111-23.587,17.414c-9.368,1.303-17.037-0.081-23.004-4.151
		c-5.969-4.069-9.556-10.449-10.765-19.139c-1.208-8.689,1.217-16.534,7.282-23.533c6.062-6.998,15.811-11.433,29.247-13.301
		l14.606-2.031l-0.925-6.655c-0.805-5.792-4.845-8.185-12.117-7.174c-7.274,1.012-13.633,2.715-19.079,5.104l1.465,10.538
		l-21.262,2.956l-3.83-27.548C160.819,269.89,167.62,267.059,175.505,264.579z M115.944,396.986
		c2.188-3.129,5.215-4.965,9.083-5.513c3.868-0.548,7.159,0.366,9.875,2.737c2.713,2.371,4.343,5.461,4.881,9.266
		c0.539,3.807-0.286,7.273-2.473,10.401c-2.189,3.127-5.188,4.961-8.993,5.5c-3.807,0.539-7.097-0.372-9.875-2.736
		c-2.776-2.36-4.435-5.446-4.974-9.254C112.932,403.583,113.756,400.113,115.944,396.986z M116.287,524.225l-2.866-20.261
		l14.366-2.032l-7.297-51.573l-14.182,2.007l-2.867-20.261l38.126-5.396l10.164,71.834l16.025-2.268l2.867,20.261L116.287,524.225z
		 M257.894,430.915l-16.359,75.587l-26.523,3.752l-36.687-68.079l-11.422,1.615l-2.867-20.26l43.652-6.177l2.867,20.26l-6.078,0.861
		l19.285,38.039l7.974-41.897l-6.076,0.861l-2.867-20.262l43.652-6.177l2.867,20.261L257.894,430.915z M259.833,299.78
		c-1.937-13.927,0.441-25.974,7.13-36.139c6.69-10.165,16.66-16.168,29.911-18.01c13.249-1.843,24.971-0.896,35.165,2.837
		l4.215,30.321l-21.261,2.957l-1.98-14.236c-3.464-0.522-7.295-0.495-11.483,0.089c-6.656,0.925-11.53,4.052-14.621,9.383
		c-3.091,5.33-4.104,11.815-3.042,19.457c1.062,7.644,3.806,13.604,8.234,17.889c4.428,4.284,9.507,6.027,15.24,5.231
		c5.731-0.797,10.459-2.021,14.188-3.669c3.729-1.65,6.296-3.043,7.712-4.182c1.41-1.139,3.283-2.812,5.614-5.021l12.212,17.337
		c-8.466,9.597-20.032,15.413-34.701,17.452c-14.669,2.04-26.605-0.918-35.815-8.872C267.343,324.649,261.77,313.71,259.833,299.78z
		 M334.255,495.262c-14.981,2.12-27.07-0.771-36.266-8.677c-9.198-7.905-14.779-18.794-16.742-32.671
		c-1.962-13.876,0.377-25.887,7.02-36.032c6.644-10.146,16.809-16.188,30.501-18.125c13.692-1.938,24.725,1.011,33.099,8.844
		c8.368,7.834,13.531,18.628,15.477,32.38l1.383,9.763l-62.257,8.809c1.063,4.859,3.687,8.59,7.876,11.19
		c4.188,2.602,8.797,3.545,13.835,2.832c5.034-0.712,9.25-1.684,12.645-2.916c3.396-1.23,5.757-2.252,7.081-3.068
		c1.323-0.812,3.285-2.216,5.885-4.214l4.082-3.02l12.211,17.248C361.177,487.258,349.234,493.142,334.255,495.262z"/>
</g>
<line fill="none" stroke="#FFFFFF" stroke-width="20" stroke-miterlimit="10" x1="237.035" y1="3.728" x2="237.035" y2="-261.735"/>
</svg>
