<?xml version="1.0" encoding="utf-8"?>
<!-- Generator: Adobe Illustrator 15.1.0, SVG Export Plug-In . SVG Version: 6.00 Build 0)  -->
<!DOCTYPE svg PUBLIC "-//W3C//DTD SVG 1.1//EN" "http://www.w3.org/Graphics/SVG/1.1/DTD/svg11.dtd">
<svg version="1.1" id="Layer_1" xmlns="http://www.w3.org/2000/svg" xmlns:xlink="http://www.w3.org/1999/xlink" x="0px" y="0px"
	 width="473.271px" height="576px" viewBox="0 0 473.271 576" enable-background="new 0 0 473.271 576" xml:space="preserve">
<g id="ni0y61_1_">
	
		<image overflow="visible" enable-background="new    " width="835" height="316" id="ni0y61_2_" xlink:href="B78BA73C.jpeg"  transform="matrix(3.2718 0 0 3.269 -1019 847.002)">
	</image>
</g>
<polygon fill="none" points="3057.903,1188.094 1773,857.902 1776.121,576 3061.025,906.191 "/>
<text transform="matrix(1.1046 0 0 1 1903.6006 891.4697)" fill="#EDF0F1" font-family="'CherrySwash-Bold'" font-size="170.8897">H</text>
<rect x="988.5" y="-575.174" fill="#61325B" width="93.948" height="147.271"/>
<rect x="487.808" y="-463.174" fill="#61325B" width="93.948" height="147.271"/>
<rect x="487.808" y="-631" fill="#452442" width="93.948" height="147.271"/>
<path fill="#FFFFFF" stroke="#FFFFFF" stroke-width="16" stroke-miterlimit="10" d="M228.831,518.604
	c14.003,0.387,69.703-8.805,68.522-7.547c-16.598,17.653,4.686,51.764-71.482,51.764c-69.647,0-45.148-27.812-66.346-52.493
	c-2.474-2.881,36.907,8.276,66.983,8.276H228.831z"/>
<g>
	<path fill="#FFFFFF" d="M328.462,291.277c-3.101-2.53-7.227-3.51-12.38-2.936c-5.154,0.572-9.257,2.499-12.309,5.775
		c-3.053,3.279-4.856,7.286-5.406,12.023l36.247-4.033C333.612,297.426,331.559,293.814,328.462,291.277z"/>
	<path fill="#FFFFFF" d="M184.798,178.787c-2.393,2.182-3.41,4.868-3.055,8.061c0.355,3.194,2.957,4.52,7.807,3.979
		c8.16-0.908,15.248-6.604,21.264-17.091l-0.08-0.709l-14.191,1.579C191.104,175.212,187.187,176.606,184.798,178.787z"/>
	<path fill="#FFFFFF" d="M412.655,349.545c-8.591,0.958-15.058-0.599-19.407-4.677c-4.352-4.069-6.929-9.718-7.731-16.947
		l-5.201-46.728l-15.459,1.721l-1.978-17.771l15.26-3.497c2.815-10.266,4.491-18.369,5.031-24.304l15.459-1.722l2.61,23.455
		l21.145-2.354l2.174,19.545l-21.144,2.354l4.885,43.889c0.225,2.015,0.717,3.488,1.481,4.422c0.763,0.935,2.271,1.273,4.52,1.023
		c2.251-0.25,6.033-1.808,11.354-4.678l6.76,11.009c16.209-31.194,25.378-66.633,25.378-104.218
		c0-42.333-11.634-81.943-31.861-115.831l-4.919,0.547l-20.2,25.057l26.003,25.48l13.48-1.501l1.717,15.433
		c-2.431,1.829-4.619,3.151-6.562,3.965c-1.945,0.815-5.164,1.473-9.656,1.972c-4.497,0.501-8.248,0.11-11.265-1.17
		c-3.016-1.281-5.95-3.438-8.802-6.474l-23.577-24.671l-5.421,2.937l1.56,14.012l11.883-1.323l2.172,19.514l-48.782,5.429
		l-2.17-19.513l13.836-1.54l-10.464-94.015l-13.657,1.52l-2.172-19.514l36.717-4.086l8.667,77.873l5.952-2.997l10.584-13.031
		l-6.035,0.672l-2.17-19.511l31.05-3.456C372.485,39.977,306.206,3.728,231.452,3.728c-76.982,0-144.975,38.443-185.863,97.167
		l20.74-2.309l2.369,21.286l-15.434,1.718l3.396,30.509l47.542-5.29l-3.397-30.511l-15.432,1.718l-2.37-21.287l55.699-6.198
		l2.37,21.286l-17.207,1.915l9.083,81.598l17.207-1.916l2.368,21.285l-55.699,6.2l-2.37-21.286l15.434-1.718l-3.318-29.8
		l-47.54,5.291l3.315,29.8l15.434-1.716l2.369,21.286l-55.699,6.2l-2.37-21.287l17.207-1.916l-8.875-79.743
		c-3.299,6.361-6.302,12.899-8.998,19.596l2.881-0.321c1.015,9.108-0.552,17.094-4.695,23.959c-1.997,3.307-4.754,5.948-8.257,7.936
		c-4.062,16.968-6.228,34.673-6.228,52.885c0,51.957,17.512,99.82,46.947,138.023l10.767-1.198l-10.48-94.171l-13.683,1.522
		l-2.175-19.546l36.781-4.093l12.655,113.717l15.46-1.722l2.174,19.546l-36.01,4.01c17.917,18.809,39.035,34.544,62.486,46.318
		c30.507,15.311-23.498,63.874,89.245,63.874c130,0,78.924-47.553,108.034-61.185c41.007-19.199,75.308-50.337,98.435-88.937
		C421.592,347.917,417.232,349.035,412.655,349.545z M175.573,122.525c7.599-2.162,14.001-3.534,19.207-4.114
		c10.289-1.145,18.629,0.652,25.022,5.388c6.393,4.738,10.091,11.6,11.09,20.585l4.699,42.217l14.545-1.618l1.716,15.433
		c-4.781,3.288-11.015,5.357-18.701,6.213c-12.3,1.368-18.909-2.084-19.83-10.365c-6.348,9.687-14.014,15.029-22.999,16.029
		c-8.989,1.001-16.281-0.522-21.88-4.571c-5.599-4.043-8.861-10.236-9.79-18.572c-0.927-8.338,1.597-15.771,7.575-22.304
		c5.979-6.53,15.411-10.515,28.303-11.949l14.013-1.56l-0.71-6.388c-0.619-5.556-4.417-7.948-11.394-7.172
		c-6.981,0.777-13.101,2.239-18.37,4.38l1.124,10.11l-20.399,2.27l-2.941-26.43C161.397,127.217,167.971,124.69,175.573,122.525z
		 M118.415,258.624c2.189-2.944,5.152-4.623,8.883-5.037c3.731-0.415,6.864,0.556,9.408,2.91c2.539,2.356,4.016,5.372,4.424,9.042
		c0.408,3.673-0.485,6.978-2.673,9.92c-2.192,2.943-5.125,4.619-8.797,5.028c-3.672,0.409-6.806-0.559-9.406-2.911
		c-2.599-2.348-4.104-5.359-4.514-9.033C115.332,264.874,116.224,261.564,118.415,258.624z M115.109,380.863l-2.174-19.546
		l13.859-1.543l-5.538-49.75l-13.682,1.523l-2.175-19.549l36.78-4.091l7.711,69.296l15.458-1.722l2.176,19.547L115.109,380.863z
		 M253.809,295.271l-17.875,72.145l-25.586,2.847l-33.299-66.448l-11.021,1.226l-2.175-19.545l42.112-4.687l2.176,19.545
		l-5.864,0.652l17.44,37.093l8.858-40.019l-5.864,0.652l-2.175-19.545l42.111-4.688l2.175,19.547L253.809,295.271z M255.254,158.373
		c-1.486-13.361,1.101-24.814,7.761-34.355c6.659-9.541,16.346-15.02,29.061-16.435c12.709-1.414,23.889-0.203,33.535,3.633
		l3.239,29.091l-20.401,2.271l-1.518-13.66c-3.298-0.59-6.961-0.663-10.979-0.215c-6.386,0.709-11.127,3.571-14.22,8.587
		c-3.095,5.012-4.233,11.187-3.417,18.517c0.816,7.336,3.283,13.105,7.404,17.313c4.119,4.212,8.93,6.011,14.429,5.399
		c5.501-0.612,10.052-1.657,13.658-3.137c3.607-1.48,6.099-2.745,7.479-3.795c1.379-1.051,3.213-2.601,5.499-4.653l11.22,16.891
		c-8.342,8.951-19.55,14.208-33.624,15.774c-14.075,1.567-25.406-1.571-34.001-9.416
		C261.785,182.341,256.742,171.738,255.254,158.373z M325.325,359.267c-14.452,1.609-25.98-1.518-34.59-9.373
		c-8.609-7.857-13.658-18.473-15.148-31.859c-1.489-13.388,1.102-24.859,7.773-34.416c6.67-9.557,16.607-15.068,29.818-16.541
		c13.208-1.47,23.723,1.679,31.541,9.442c7.818,7.765,12.469,18.281,13.945,31.547l1.05,9.418l-60.059,6.682
		c0.883,4.701,3.296,8.357,7.247,10.977c3.948,2.617,8.35,3.657,13.209,3.117c4.856-0.541,8.935-1.354,12.229-2.44
		c3.299-1.087,5.597-1.999,6.891-2.745c1.295-0.743,3.22-2.035,5.774-3.881l4.008-2.783l11.238,16.918
		C351.418,352.345,339.776,357.658,325.325,359.267z"/>
</g>
</svg>
